<?xml version="1.0" encoding="UTF-8"?>
<!-- Generator: Adobe Illustrator 17.1.0, SVG Export Plug-In . SVG Version: 6.00 Build 0)  -->
<!DOCTYPE svg PUBLIC "-//W3C//DTD SVG 1.1//EN" "http://www.w3.org/Graphics/SVG/1.1/DTD/svg11.dtd">
<svg version="1.1" id="Layer_1" xmlns:x="http://ns.adobe.com/Extensibility/1.0/" xmlns:i="http://ns.adobe.com/AdobeIllustrator/10.0/" xmlns:graph="http://ns.adobe.com/Graphs/1.0/" xmlns="http://www.w3.org/2000/svg" xmlns:xlink="http://www.w3.org/1999/xlink" x="0px" y="0px" viewBox="0 0 512 512" enable-background="new 0 0 512 512" xml:space="preserve">
<metadata>
	<sfw xmlns="http://ns.adobe.com/SaveForWeb/1.0/">
		<slices/>
		<sliceSourceBounds width="358.5" height="512" y="0" x="76.8" bottomLeftOrigin="true"/>
	</sfw>
</metadata>
<polygon fill="#FF795A" points="355,512 323.1,468.6 316,458.9 309.2,449.7 321.3,443.6 332.9,437.9 336.2,448.8 339.7,460.8 "/>
<path fill="#F43805" d="M331.8,464.8c2.7-1.3,5.4-2.6,8-4l-3.6-12l-3.3-11l-11.6,5.8l-12.1,6l6.8,9.2l39,53.1L331.8,464.8z"/>
<g>
	<polygon fill="#FF795A" points="202.8,449.7 196,458.9 188.9,468.6 157,512 172.3,460.8 175.8,448.9 179.1,437.9 190.8,443.7  "/>
	<path fill="#FF795A" d="M418.7,63.3l-32.1,11.4l0.4,0.2l-38,76.4l-10.9-5.4l-9.2-4.6l37.8-76l-11.4-32.1c-1-2.8-1.5-5.6-1.5-8.3   c0-10.2,6.4-19.8,16.5-23.4c2.8-1,5.6-1.5,8.3-1.5c10.2,0,19.8,6.4,23.4,16.5c12.9-4.6,27.1,2.1,31.7,15.1   C438.4,44.5,431.6,58.7,418.7,63.3z"/>
</g>
<g>
	<path fill="#F43805" d="M402,16.5l-64,129.4l-9.2-4.6l37.8-76l-11.4-32.1c-1-2.8-1.5-5.6-1.5-8.3c0-10.2,6.4-19.8,16.5-23.4   c2.8-1,5.6-1.5,8.3-1.5C388.9,0,398.4,6.4,402,16.5z"/>
	<path fill="#F43805" d="M183.2,141.3l-9.2,4.6l-10.9,5.5l-38-76.4l0.4-0.2L93.3,63.3c-12.9-4.6-19.7-18.8-15.1-31.7   c3.6-10.2,13.2-16.5,23.4-16.5c2.8,0,5.6,0.5,8.3,1.4l0.5-1.2C114.3,5.9,123.6,0,133.4,0c2.8,0,5.6,0.5,8.3,1.5   c12.9,4.6,19.7,18.8,15.1,31.7l-11.4,32.1L183.2,141.3z"/>
</g>
<path fill="#FF795A" d="M183.2,141.3l-9.2,4.6L110,16.5l0.5-1.2C114.3,5.9,123.6,0,133.4,0c2.8,0,5.6,0.5,8.3,1.5  c12.9,4.6,19.7,18.8,15.1,31.7l-11.4,32.1L183.2,141.3z"/>
<path fill="#FFA700" d="M433.6,290.6c0,3-0.1,6-0.2,9c-0.1,2.9-0.3,5.8-0.6,8.6c-0.3,2.8-0.6,5.5-1,8.2c-1.4,9.5-3.5,18.8-6.4,27.8  c-1.8,5.8-3.9,11.4-6.3,16.9c-9.2,21.3-22.4,40.4-38.8,56.4c-4.4,4.4-9.1,8.5-14,12.4c-7.6,6-15.6,11.4-24.1,16.1  c-5,2.8-10.1,5.3-15.4,7.6c-8.4,3.7-17.2,6.7-26.3,9c-5.4,1.4-11,2.5-16.6,3.4c-9.1,1.4-18.4,2.2-27.9,2.2h-0.3  c-6,0-12-0.3-17.9-0.9h0c-10.5-1.1-20.7-3.1-30.6-5.9h0c-6.7-1.9-13.3-4.2-19.6-6.9c-9.8-4.1-19.2-9.1-28-14.8  c-5-3.3-9.9-6.8-14.5-10.5c-8.1-6.5-15.7-13.8-22.6-21.6c-4.6-5.2-8.8-10.7-12.8-16.4c-7.5-10.8-13.8-22.5-18.7-34.9  c-0.5-1.3-1-2.6-1.5-3.9c-3.1-8.3-5.6-16.9-7.4-25.8c-2.4-11.7-3.7-23.7-3.7-36.1c0-37.5,11.6-72.4,31.5-101.1  c4.1-5.9,8.5-11.5,13.2-16.8c6.8-7.7,14.2-14.7,22.2-21.1c4.7-3.7,9.5-7.2,14.5-10.5c7.9-5.1,16.3-9.6,25-13.4  c5.1-2.3,10.4-4.3,15.8-6c8.7-2.9,17.7-5.1,27-6.5c5.6-0.9,11.3-1.5,17-1.9c3.7-0.2,7.5-0.4,11.3-0.4c6,0,11.9,0.3,17.7,0.9  c6.2,0.6,12.4,1.6,18.4,2.8c34.9,7.2,66.1,24.7,90.2,49.2c2.7,2.7,5.3,5.5,7.8,8.4c2.4,2.8,4.7,5.6,6.9,8.5  c6.6,8.6,12.4,17.9,17.4,27.6c1.4,2.7,2.7,5.5,4,8.4c1.2,2.8,2.4,5.6,3.5,8.5c3.4,8.9,6.1,18.2,8.1,27.7c1.1,5.5,2,11.2,2.6,16.9  C433.3,278,433.6,284.2,433.6,290.6z"/>
<path fill="#F43805" d="M190.8,443.7l-11.7-5.8l-3.3,11L157,512l23.3-47.2c2.4,1.1,4.8,2.2,7.2,3.2c0.4,0.2,0.9,0.4,1.3,0.6l7.1-9.7  l6.8-9.2L190.8,443.7z"/>
<path fill="#E09B2D" d="M290.6,454.5c-9.8-4.1-19.2-9.1-28-14.8c-5-3.3-9.9-6.8-14.5-10.5c-8.1-6.5-15.7-13.8-22.6-21.6  c-4.6-5.2-8.8-10.7-12.8-16.4c-7.5-10.8-13.8-22.5-18.7-34.9c-0.5-1.3-1-2.6-1.5-3.9c-3.1-8.3-5.6-16.9-7.4-25.8  c-2.4-11.7-3.7-23.7-3.7-36.1c0-37.5,11.6-72.4,31.5-101.1c4.1-5.9,8.5-11.5,13.2-16.8c6.8-7.7,14.2-14.7,22.2-21.1  c4.7-3.7,9.5-7.2,14.5-10.5c7.9-5.1,16.3-9.6,25-13.4c5.1-2.3,10.4-4.3,15.8-6c1.3-0.4,2.5-0.8,3.8-1.2c-5-1.5-10.1-2.8-15.3-3.9  c-6-1.3-12.2-2.2-18.4-2.8c-5.8-0.6-11.8-0.9-17.7-0.9c-3.8,0-7.6,0.1-11.3,0.4c-5.8,0.4-11.4,1-17,1.9c-9.3,1.5-18.3,3.7-27,6.5  c-5.4,1.8-10.7,3.8-15.8,6c-8.7,3.8-17.1,8.3-25,13.4c-5,3.2-9.9,6.7-14.5,10.5c-8,6.4-15.4,13.4-22.2,21.1  c-4.7,5.3-9.1,10.9-13.2,16.8C90,218.2,78.4,253,78.4,290.6c0,12.4,1.3,24.4,3.7,36.1c1.8,8.9,4.3,17.5,7.4,25.8  c0.5,1.3,1,2.6,1.5,3.9c4.9,12.4,11.2,24.1,18.7,34.9c3.9,5.7,8.2,11.2,12.8,16.4c6.9,7.8,14.4,15.1,22.6,21.6  c4.7,3.7,9.5,7.2,14.5,10.5c8.8,5.7,18.2,10.7,28,14.8c6.4,2.7,12.9,5,19.6,6.9h0c9.9,2.8,20.1,4.8,30.6,5.9h0  c5.9,0.6,11.8,0.9,17.9,0.9h0.3c9.5,0,18.8-0.7,27.9-2.2c5.6-0.9,11.2-2,16.6-3.4c2.4-0.6,4.7-1.3,7-2  C301.8,458.9,296.1,456.8,290.6,454.5z"/>
<g>
	<path fill="#B27214" d="M342.2,446c-5,2.8-10.1,5.3-15.4,7.6l-99.1-338.3c5.6-0.9,11.3-1.5,17-1.9L342.2,446z"/>
	<path fill="#B27214" d="M300.5,462.6c-5.4,1.4-11,2.5-16.6,3.4l-99.1-338.2c5.1-2.3,10.4-4.3,15.8-6L300.5,462.6z"/>
	<path fill="#B27214" d="M255.7,468.2c-6,0-12-0.3-17.9-0.9h0l-92.5-315.6c4.7-3.7,9.5-7.2,14.5-10.5L255.7,468.2z"/>
	<path fill="#B27214" d="M433.4,299.6c-0.1,2.9-0.3,5.8-0.6,8.6c-0.3,2.8-0.6,5.5-1,8.2l-81,0.2l8.1,27.7l66.5-0.2   c-1.8,5.8-3.9,11.4-6.3,16.9l-55.2,0.2l16.5,56.2c-4.4,4.4-9.1,8.5-14,12.4l-92.6-316c6.2,0.6,12.4,1.6,18.4,2.8l14.5,49.4   l75.8-0.2c2.7,2.7,5.3,5.5,7.8,8.4c2.4,2.8,4.7,5.6,6.9,8.5l-85.5,0.2l8.1,27.7l94.8-0.3c1.4,2.7,2.7,5.5,4,8.4   c1.2,2.8,2.4,5.6,3.5,8.5l-97.3,0.3l8.1,27.7l97.3-0.3c1.1,5.5,2,11.2,2.6,16.9l-94.9,0.3l8.1,27.7L433.4,299.6z"/>
	<path fill="#B27214" d="M207.2,461.4c-6.7-1.9-13.3-4.2-19.6-6.9l-16.2-55.2l-11.8,40.4c-5-3.3-9.9-6.8-14.5-10.5l17.6-60   L148.1,320l-25.7,87.7c-4.6-5.2-8.8-10.7-12.8-16.4l29.7-101.3l-14.4-49.3L90.9,356.3c-0.5-1.3-1-2.6-1.5-3.9   c-3.1-8.3-5.6-16.9-7.4-25.8l34-116.1l-6.2-21.1c4.1-5.9,8.5-11.5,13.2-16.8L207.2,461.4z"/>
</g>
</svg>