<?xml version="1.0" encoding="utf-8"?>
<!-- Generator: Adobe Illustrator 21.1.0, SVG Export Plug-In . SVG Version: 6.00 Build 0)  -->
<svg version="1.1" id="Capa_1" xmlns="http://www.w3.org/2000/svg" xmlns:xlink="http://www.w3.org/1999/xlink" x="0px" y="0px"
	 viewBox="0 0 513.2 653" fill="#00a0b7" style="enable-background:new 0 0 513.2 653;" xml:space="preserve">
<g>
	<g>
		<path d="M483.2,364.2l15,0c12,0,19.1-13.4,12.5-23.3L450.7,251c-5.9-8.9-19-8.9-24.9,0l-59.9,89.9c-6.6,9.9,0.5,23.3,12.5,23.3
			h14.4c-5.2,65.9-45.1,99.3-93.1,126.3c0-118.4,0.1-74.6-0.4-205.2h14.9c24.8,0,44.9-20.2,44.9-44.9c0-24.8-20.2-44.9-44.9-44.9
			l-14.6,0L301,135c18.7-14,30.1-35.8,30.1-60.1c0-41.3-33.6-74.9-74.9-74.9c-41.3,0-74.9,33.6-74.9,74.9
			c0,23.9,11.3,45.7,29.8,59.7l-1.4,60.7h-15.3c-24.8,0-44.9,20.1-44.9,44.9c0,24.8,20.2,44.9,44.9,44.9h15
			c0.4,130.6,0.4,87.3,0.4,203.1c-51.9-30-84.7-64.3-89.3-124.2h14.4c12,0,19.1-13.4,12.5-23.3L87.4,251c-5.9-8.9-19-8.9-24.9,0
			L2.5,340.9c-6.6,9.9,0.5,23.3,12.5,23.3h15C31,492,96.8,538.8,172.9,593c27.8,19.8,48.5,34.7,73.9,56.4c5.6,4.8,13.9,4.8,19.5,0
			c25.3-21.7,46-36.5,73.7-56.2C416.3,539.1,482.2,492.3,483.2,364.2z M211.3,74.9c0-24.8,20.2-44.9,44.9-44.9
			c24.8,0,44.9,20.2,44.9,44.9c0,24.8-20.1,44.9-44.9,44.9C231.4,119.9,211.3,99.7,211.3,74.9z M240.7,148.2
			c5,1.1,10.2,1.6,15.5,1.6c4.9,0,9.8-0.5,14.5-1.4l-1.1,47l-30,0L240.7,148.2z M194.4,255.3c-8.3,0-15-6.7-15-15
			c0-8.3,6.7-15,15-15l119.9,0c8.3,0,15,6.7,15,15c0,8.3-6.7,15-15,15C314.2,255.3,194.4,255.3,194.4,255.3z M322.7,568.8
			c-21.5,15.2-43.6,30.9-66.1,49.6c-22.6-18.8-44.8-34.5-66.3-49.8c-75.7-53.8-130.3-92.7-130.3-207.4l0-12c0-8.3-6.7-15-15-15h-2
			l31.9-47.9l31.9,47.9h-2c-8.3,0-15,6.7-15,15c0,89.8,49.1,137.1,128,177.7c10,5.1,21.8-2.1,21.8-13.3c0-143.4,0.1-94.7-0.4-228.3
			h30c0.5,133.7,0.4,84.5,0.4,230.2c0,11.2,11.9,18.4,21.8,13.3c29.2-15,62.5-33.4,88.2-61.5c29.3-32,43.5-70.6,43.5-118.1
			c0-8.3-6.7-15-15-15h-2l31.9-47.9l31.9,47.9h-2c-8.3,0-15,6.7-15,15l0,12C453.2,476.1,398.5,515,322.7,568.8z"/>
	</g>
</g>
</svg>
