<?xml version="1.0" encoding="iso-8859-1"?>
<!-- Generator: Adobe Illustrator 19.0.0, SVG Export Plug-In . SVG Version: 6.00 Build 0)  -->
<svg version="1.1" id="Layer_1" xmlns="http://www.w3.org/2000/svg" xmlns:xlink="http://www.w3.org/1999/xlink" x="0px" y="0px"
	 viewBox="0 0 512 512" style="enable-background:new 0 0 512 512;" xml:space="preserve">
<g>
	<g>
		<path d="M510.875,469.93c-3.141-7.666-11.902-11.333-19.567-8.192c-5.893,2.415-11.573,5.434-16.884,8.975
			c-6.132,4.088-12.846,7.042-19.82,8.875c3.905-5.706,7.047-11.997,9.297-18.744l16.325-48.973
			c3.232-9.698-3.995-19.744-14.23-19.744H300.999v-30h134.998c11.392,0,18.644-12.254,13.135-22.244L311.401,90.13h34.597
			c41.354,0,74.999-33.644,74.999-74.999c0-8.284-6.716-15-15-15H286c-8.284,0-15,6.716-15,15v49.725
			C163.864,87.806,78.701,204.606,65.071,313.645l-3.953,31.622c-1.119,8.948,5.867,16.861,14.884,16.861h194.997v30H46.002
			c-10.222,0-17.466,10.034-14.23,19.744l16.325,48.972c2.187,6.56,5.225,12.67,8.968,18.241
			c-6.319-1.853-12.398-4.643-17.993-8.373c-5.847-3.898-12.125-7.155-18.661-9.682c-7.726-2.987-16.412,0.854-19.399,8.582
			c-2.987,7.727,0.855,16.412,8.582,19.4c4.493,1.737,8.813,3.979,12.837,6.662c32.175,21.452,75.464,21.451,107.64,0
			c22.281-14.854,51.075-14.854,73.357,0c32.386,21.592,74.247,21.597,106.64,0c22.281-14.854,51.075-14.854,73.357,0
			c31.779,21.188,75.089,21.702,107.64,0c3.656-2.438,7.564-4.515,11.617-6.176C510.349,486.355,514.017,477.595,510.875,469.93z
			 M300.999,30.031h87.429c-6.191,17.461-22.874,30.099-42.429,30.099h-44.999V30.031z M300.999,332.127V133.393l109.596,198.735
			L300.999,332.127L300.999,332.127z M92.995,332.127l1.845-14.761c10.068-80.548,66.876-172.218,143.066-209.462
			c-16.925,25.673-26.905,55.405-26.905,87.225c0,43.363,16.355,100.818,41.056,136.998H92.995z M241,195.129
			c0-28.834,10.867-57.751,30-81.736V305.81C252.879,274.232,241,228.79,241,195.129z M445.185,422.125l-9.744,29.23
			c-3.81,11.429-11.882,20.681-22.505,25.994c-4.483-1.719-8.805-3.928-12.87-6.639c-32.391-21.594-74.249-21.594-106.639,0
			c-22.281,14.855-51.076,14.855-73.358,0c-32.391-21.594-74.249-21.594-106.639,0c-4.32,2.88-8.93,5.193-13.715,6.954
			c-10.947-5.25-19.263-14.62-23.159-26.31l-9.743-29.23L445.185,422.125L445.185,422.125z"/>
	</g>
</g>
<g>
</g>
<g>
</g>
<g>
</g>
<g>
</g>
<g>
</g>
<g>
</g>
<g>
</g>
<g>
</g>
<g>
</g>
<g>
</g>
<g>
</g>
<g>
</g>
<g>
</g>
<g>
</g>
<g>
</g>
</svg>
