<?xml version="1.0" encoding="iso-8859-1"?>
<!-- Generator: Adobe Illustrator 19.0.0, SVG Export Plug-In . SVG Version: 6.00 Build 0)  -->
<svg version="1.1" id="Capa_1" xmlns="http://www.w3.org/2000/svg" xmlns:xlink="http://www.w3.org/1999/xlink" x="0px" y="0px"
	 viewBox="0 0 512 512" fill="#00a0b7" style="enable-background:new 0 0 512 512;" xml:space="preserve">
<g>
	<g>
		<path d="M436,120c-5.857,0-11.449,1.136-16.586,3.181C414.209,104.085,396.723,90,376,90c-5.857,0-11.449,1.136-16.586,3.181
			C354.209,74.085,336.723,60,316,60c-5.857,0-11.449,1.136-16.586,3.181C294.209,44.085,276.723,30,256,30
			c-5.857,0-11.449,1.136-16.586,3.181C234.209,14.085,216.723,0,196,0s-38.209,14.085-43.414,33.181
			C147.449,31.136,141.857,30,136,30c-24.813,0-45,20.187-45,45v47.58c-4.695-1.665-9.742-2.58-15-2.58c-24.813,0-45,20.187-45,45
			v61.663c0,51.686,17.996,102.205,50.673,142.251L91,380.344V435c0,8.284,6.716,15,15,15h105v47c0,8.284,6.716,15,15,15h210
			c8.284,0,15-6.716,15-15v-60.153c10.293-41.172,30-110.475,30-210.483V165C481,140.187,460.813,120,436,120z M104.917,349.947
			C76.597,315.24,61,271.458,61,226.663c0-1.146,0-0.462,0-61.663c0-8.271,6.729-15,15-15s15,6.729,15,15v60c0,8.284,6.716,15,15,15
			s15-6.716,15-15V75c0-8.271,6.729-15,15-15s15,6.729,15,15v90c0,8.284,6.716,15,15,15s15-6.716,15-15V45c0-8.271,6.729-15,15-15
			s15,6.729,15,15v120c0,8.284,6.716,15,15,15s15-6.716,15-15V75c0-8.271,6.729-15,15-15s15,6.729,15,15v90c0,8.284,6.716,15,15,15
			s15-6.716,15-15v-60c0-8.271,6.729-15,15-15s15,6.729,15,15v61.364c0,24.598-1.303,49.184-3.872,73.636H286
			c-24.813,0-45,20.187-45,45s20.187,44.9,45,44.9h25.728c-1.522,6.379-0.618,2.693-7.44,30.1H113.12L104.917,349.947z
			 M323.317,269.9c-1.491,10.035-3.199,20.137-5.122,30.1H286c-8.271,0-15-6.729-15-15s6.729-15.1,15-15.1H323.317z M121,420v-30
			h180v30H121z M421,482H241v-32c8.632,0,173.062,0,180,0V482z M438.195,360H406c-8.271,0-15-6.729-15-15s6.729-15.1,15-15.1h37.317
			C441.826,339.935,440.118,350.037,438.195,360z M451,226.364c0,24.598-1.303,49.184-3.872,73.636H406c-24.813,0-45,20.187-45,45
			s20.187,44.9,45,44.9h25.728c-1.524,6.388-0.612,2.666-7.44,30.1H331v-43.153c18.815-75.259,30-130.701,30-210.483V135
			c0-8.271,6.729-15,15-15s15,6.729,15,15v90c0,8.284,6.716,15,15,15s15-6.716,15-15v-60c0-8.271,6.729-15,15-15s15,6.729,15,15
			V226.364z"/>
	</g>
</g>
<g>
</g>
<g>
</g>
<g>
</g>
<g>
</g>
<g>
</g>
<g>
</g>
<g>
</g>
<g>
</g>
<g>
</g>
<g>
</g>
<g>
</g>
<g>
</g>
<g>
</g>
<g>
</g>
<g>
</g>
</svg>
