<?xml version="1.0" encoding="utf-8"?>
<!-- Generator: Adobe Illustrator 21.1.0, SVG Export Plug-In . SVG Version: 6.00 Build 0)  -->
<svg version="1.1" id="Слой_1" xmlns="http://www.w3.org/2000/svg" xmlns:xlink="http://www.w3.org/1999/xlink" x="0px" y="0px"
	 viewBox="0 0 59.6 104.4" fill="#00a0b7" style="enable-background:new 0 0 59.6 104.4;" xml:space="preserve">
<style type="text/css">
	.st0{stroke:#00a0b7;stroke-width:0.5;stroke-miterlimit:10;}
</style>
<path class="st0" d="M46.5,14.3c-0.6,3,1.5,3.6,4,6.1c9.1,7.2,11.4,18.9,5.7,29.2c-1,1.8-1.4,3.2-0.2,5.3
	c6.3,11.1,3.3,23.8-7.5,30.8c-2.6,1.7-3.5,3.4-3.2,6.3c0.2,1.6,0.1,3.2,0,4.9c-0.2,4.1-2.9,7-6.7,7.2c-3.8,0.1-6.8-2.5-7.3-6.6
	c-0.2-1.4-0.1-2.7-0.1-4.1c0-1.3-0.2-2.2-1.8-2.1c-1.2,0.1-2.1,0-2.3,1.7c-0.2,2.1-0.7,4.2-1.3,6.2c-1.2,3.6-4.8,5.6-8.2,4.7
	c-3.5-0.9-5.5-3.1-5-6.8c0,0,0-0.1,0-0.1c0.6-2.8,1.1-6.2-0.1-8.8c-0.7-1.7-2.6-2.7-4-4C0.6,76.7-2,64.1,3.8,54.4
	c0.7-1.2,0.7-2.7,0-3.9C-2.9,39,0,26.2,11.1,19c2.5-1.6,3.3-3.3,3.1-6c-0.2-2-0.2-4,0-6c0.3-4,3.4-6.8,7.1-6.7
	c3.4,0.1,6.1,2.5,6.7,6c0.1,0.3,0.1,0.7,0.1,1c0,0.7,0,3.7-0.1,4.5c0,0.7,0.2,1.4,1.6,1.6c2.4,0.4,3.5-0.5,4-3
	c0.8-3.5,4.4-5.5,7.7-4.9c2.3,0.5,4.1,1.8,5,3.8c0.3,0.6,0.5,1.2,0.6,1.9C47,11.9,46.5,14,46.5,14.3z M8.3,55.9
	c-0.4-0.7-1.4-0.7-1.8,0.1c-4.4,8.5-3,18.8,3.9,25c10.1,9.2,28.4,9.2,38.6,0.1c7-6.2,9.3-15.1,4.3-24.9c-0.4-0.8-1.5-0.7-1.9,0
	c-1.2,2.5-1.9,4.6-3,8.7c-0.1,0.4-0.2,0.7-0.3,1.1c-1.4,10.1-9.9,15.3-18.9,15c-3.3-0.1-6.6-0.9-9.9-2.3c-2.2-1-3.7-1.9-5.2-3.7
	c-2.5-3-2.5-7.5-3-10.5C10.8,61.7,10,58.5,8.3,55.9z M29.7,77.4c2.2,0.1,2-1.5,2.1-2.8c0.4-7.2,2.3-14,5.4-20.4
	c0.6-1.3,0.5-2.2,0-3.5c-3-6.5-5-13.3-5.4-20.4c-0.1-1.4,0.1-2.8-2.1-2.8c-2.1,0-1.7,1.4-1.8,2.5c-0.8,7.4-2.4,14.5-5.7,21.1
	c-0.4,0.8-0.7,1.5-0.2,2.4c3.6,6.8,5.2,14.2,5.9,21.9C28.1,76.5,28.2,77.6,29.7,77.4z M46.2,20.8c-0.5-0.4-1.2,0-1.2,0.6
	c0.1,1.7,0.9,5,1.1,6.7c0.2,1.7,1.4,5.8,1.7,7c1.3,5.3,0.3,8.7-3.2,13.5c-5.1,6.9-7.8,14.8-9,23.2c-0.1,0.8-0.5,3.3-0.6,3.7
	c0,0.5,0.2,0.9,1.2,1c0.7,0,1.8-0.4,2.9-1.2c2.8-1.9,4.5-4.5,5.3-8.3c1.8-9,3.5-11.2,7.5-17.1C59.3,39.4,55.8,28.6,46.2,20.8z
	 M15.2,21.3c0-0.6-0.6-1-1.1-0.6c-0.5,0.3-0.9,0.6-1.1,0.8c-9.4,7-12.2,19.6-4.5,28.9c6.9,8.3,6.2,15.5,7,19c0.5,2.9,3,5.4,5.4,6.4
	c1,0.4,2.1,1.2,3.1,0.5c1-0.7,0.3-2.1,0.2-3.2c-1.1-9.5-4.4-18.1-10-25.9c-0.8-1-1.4-2.2-1.9-3.3c-1.2-3-0.9-4.8-0.3-7.2
	c0.3-1,0.6-2,1-2.9C14.4,30.5,14.9,25.3,15.2,21.3z M19.1,49.4c0.2,0.2,0.5,0.2,0.6-0.1c6.4-13.5,4.7-29,4.7-42.9
	c0-1.7-1.5-2.6-3.1-2.7c-1.8-0.1-3.1,1.1-3.4,2.8c-0.3,1.5-0.1,3-0.1,4.5c-0.2,9.8,0.8,17.6-2.6,25.6c-0.9,2.1-0.3,5-0.2,5.2
	C15.4,43.9,16.8,46.8,19.1,49.4z M39.8,48.7c0.2,0.4,0.7,0.5,0.9,0.1c2.8-3.2,5.4-8,4.2-12.3C44.5,34.8,40.4,24,43.5,14
	c0.7-2.2-0.7-4.6-3-5c-2.1-0.3-3.4,1.1-3.9,3C33.7,24.1,34.7,36.5,39.8,48.7z M16.3,98.9c0.4,1.3,1.9,1.7,3.5,1.7
	c2.7,0,4.1-3.2,3.9-8.1c-0.1-2.4-2.5-2.6-4.3-2.4c-0.8,0.1-2.4,0.7-2.6,1.4C16.2,93.7,16.2,98.5,16.3,98.9z M41.7,94.4
	c0.1-4.9,0.1-4.8-4-3.9c-1.3,0.3-3-0.1-2.7,2.1c0.3,2.6-1.1,5.7,1.9,7.5c2,1.2,4.4,0,4.8-2.4C41.8,96.7,41.7,95.5,41.7,94.4z
	 M31.9,18c-0.1-0.6-0.5-1-1.8-1c-1.3,0-2.2,0.4-2.1,1.4c0,0.2-0.1,2.7-0.1,3.6c0,0.9,0.3,1.6,1.8,1.8c1.6,0.2,1.9-0.4,2-1.3
	C31.7,21.8,32,18.7,31.9,18z"/>
</svg>
