<?xml version="1.0" encoding="iso-8859-1"?>
<!-- Generator: Adobe Illustrator 19.0.0, SVG Export Plug-In . SVG Version: 6.00 Build 0)  -->
<svg version="1.1" id="Capa_1" xmlns="http://www.w3.org/2000/svg" xmlns:xlink="http://www.w3.org/1999/xlink" x="0px" y="0px"
	 viewBox="0 0 512 512" style="enable-background:new 0 0 512 512;" xml:space="preserve">
<g>
	<g>
		<path d="M497,422h-75c0-14.678,0-344.341,0-362c0-33.084-26.916-60-60-60H60C26.916,0,0,26.916,0,60v15c0,8.284,6.716,15,15,15h75
			v317c0,57.897,47.103,105,105,105h257c33.084,0,60-26.916,60-60v-15C512,428.716,505.284,422,497,422z M30,60
			c0-16.542,13.458-30.1,30-30.1h250.052C304.933,38.73,302,49.08,302,60H30z M195,482c-41.355,0-75-33.645-75-75V90h197
			c8.284,0,15-6.716,15-15V60c0-16.542,13.458-30,30-30s30,13.458,30,30c0,10.455,0,381.423,0,392c0,10.925,2.949,21.167,8.072,30
			H195z M452,482c-16.542,0-30-13.458-30-30h60C482,468.542,468.542,482,452,482z"/>
	</g>
</g>
<g>
	<g>
		<path d="M287,300c-41.66,0-75,34.665-75,76c0,41.522,33.533,76,75,76c41.669,0,75-34.678,75-76C362,334.489,328.478,300,287,300z
			 M246.595,395.893C243.662,389.834,242,383.074,242,376c0-7.074,1.662-13.834,4.595-19.893L266.03,376L246.595,395.893z M287,422
			c-6.9,0-13.495-1.687-19.408-4.669L287,397.465l19.408,19.866C300.495,420.313,293.9,422,287,422z M287,354.535l-19.408-19.866
			C273.505,331.688,280.1,330,287,330c6.9,0,13.495,1.688,19.408,4.669L287,354.535z M327.405,395.893L307.97,376l19.435-19.893
			C330.338,362.166,332,368.926,332,376C332,383.074,330.338,389.834,327.405,395.893z"/>
	</g>
</g>
<g>
	<g>
		<path d="M347,120H165c-8.284,0-15,6.716-15,15s6.716,15,15,15h182c8.284,0,15-6.716,15-15S355.284,120,347,120z"/>
	</g>
</g>
<g>
	<g>
		<path d="M347,180H165c-8.284,0-15,6.716-15,15s6.716,15,15,15h182c8.284,0,15-6.716,15-15S355.284,180,347,180z"/>
	</g>
</g>
<g>
	<g>
		<path d="M347,240h-60c-8.284,0-15,6.716-15,15s6.716,15,15,15h60c8.284,0,15-6.716,15-15S355.284,240,347,240z"/>
	</g>
</g>
<g>
</g>
<g>
</g>
<g>
</g>
<g>
</g>
<g>
</g>
<g>
</g>
<g>
</g>
<g>
</g>
<g>
</g>
<g>
</g>
<g>
</g>
<g>
</g>
<g>
</g>
<g>
</g>
<g>
</g>
</svg>
