<?xml version="1.0" encoding="iso-8859-1"?>
<!-- Generator: Adobe Illustrator 19.0.0, SVG Export Plug-In . SVG Version: 6.00 Build 0)  -->
<svg version="1.1" id="Layer_1" xmlns="http://www.w3.org/2000/svg" xmlns:xlink="http://www.w3.org/1999/xlink" x="0px" y="0px"
	 viewBox="0 0 248.357 248.357" style="enable-background:new 0 0 248.357 248.357;" xml:space="preserve">
<g>
	<g>
		<g>
			<path d="M213.089,39.423H169.67c-1.907-13.801-13.751-24.473-28.066-24.473h-33.475c-14.317,0-26.159,10.671-28.068,24.473H35.27
				C15.823,39.423,0,55.246,0,74.693v123.444c0,19.447,15.823,35.27,35.27,35.27h177.819c19.445,0,35.268-15.823,35.268-35.27
				V74.693C248.359,55.246,232.536,39.423,213.089,39.423z M108.128,28.177h33.475c7.001,0,12.889,4.781,14.615,11.247H93.511
				C95.239,32.961,101.127,28.177,108.128,28.177z M213.091,220.181H35.27c-12.155,0-22.044-9.889-22.044-22.044V74.693
				c0-12.155,9.889-22.044,22.044-22.044h177.819c12.155,0,22.041,9.889,22.041,22.044v123.444h0.002
				C235.132,210.292,225.245,220.181,213.091,220.181z"/>
			<path d="M177.742,98.324c0,3.207-2.61,5.815-5.817,5.815c-3.205,0-5.813-2.61-5.813-5.833v-6.611l-40.375-0.029v40.849h11.87
				v38.7h68.642v-38.7h11.868V91.667l-40.375,0.046V98.324z M189.789,104.917l15.104-0.009v14.381h-11.87v38.7h-42.189v-38.7h-11.87
				v-14.381l15.1,0.009c2.689,7.259,9.684,12.448,17.864,12.448S187.097,112.18,189.789,104.917z"/>
			<path d="M35.861,91.571L31.317,194.92h81.165l-4.543-103.349H35.861z M78.184,181.693v-53.138H64.958v53.138H45.139l3.379-76.897
				h46.765l3.379,76.897H78.184z"/>
		</g>
	</g>
</g>
<g>
</g>
<g>
</g>
<g>
</g>
<g>
</g>
<g>
</g>
<g>
</g>
<g>
</g>
<g>
</g>
<g>
</g>
<g>
</g>
<g>
</g>
<g>
</g>
<g>
</g>
<g>
</g>
<g>
</g>
</svg>
