<?xml version="1.0" encoding="utf-8"?>
<!-- Generator: Adobe Illustrator 21.1.0, SVG Export Plug-In . SVG Version: 6.00 Build 0)  -->
<svg version="1.1" id="Слой_1" xmlns="http://www.w3.org/2000/svg" xmlns:xlink="http://www.w3.org/1999/xlink" x="0px" y="0px"
	 viewBox="0 0 96.8 96.8" fill="#00a0b7" style="enable-background:new 0 0 96.8 96.8;" xml:space="preserve">
<style type="text/css">
	.st0{fill:none;stroke:#00a0b7;stroke-width:2;stroke-miterlimit:10;}
	.st1{fill:none;stroke:#00a0b7;stroke-miterlimit:10;}
	.st2{fill:none;}
</style>
<g>
	<path d="M3.3,44.9c1.4,0.1,6.7,2.7,8.4,1.2c1.2-1.1,0.9-4,1.3-6c1.1-5,3.1-9.6,6.3-13.4c2.3-2.7,1.7-3.8-1.3-4.9
		c-1.4-0.5-2.6-1.5-3.7-2.5c-1.7-1.5-1.9-3.4-0.4-4.9c1.6-1.7,3.7-1.7,5.2,0.1c1.2,1.4,2.1,3.1,3,4.7c0.9,1.8,1.7,2.4,3.6,0.9
		c5.3-4.5,11.5-6.9,18.4-7.7c2.5-0.3,2.9-1.1,2-3.3c-0.6-1.5-1.1-3.1-1.2-4.7c-0.2-2.4,0.7-4.3,3.5-4.3c2.6,0.1,3.5,1.8,3.4,4.4
		c-0.1,2.6-3,5.4-1.1,7.3c1.6,1.5,4.9,1.2,7.5,1.8c4.7,1.1,8.9,3.3,12.5,6.4c2,1.7,2.8,1.3,3.8-0.9c0.7-1.6,1.7-3.1,2.8-4.4
		c1.5-1.9,3.5-2,5.2-0.4c1.7,1.7,1.4,3.6-0.3,5.2c-0.3,0.3-0.6,0.4-0.9,0.7c-1.7,1.6-5.2,1.7-5.4,3.9c-0.1,1.8,2.3,3.7,3.5,5.5
		c2.8,4.4,4.6,9.2,5,14.4c0.2,2.7,1.1,3.2,3.5,2.2c1.7-0.7,3.6-1.1,5.5-1.1c2.3,0.1,3.5,1.5,3.4,3.6c-0.1,1.9-1.3,3.2-3.4,3.2
		c-2,0-3.9-0.6-5.8-1.3c-1.9-0.6-3-0.4-3.2,2c-0.5,6.8-3.1,12.8-7.4,18.1c-1.7,2.1-1.4,3,0.9,4.1c1.6,0.7,3.1,1.6,4.4,2.8
		c1.6,1.4,2,3.3,0.4,5c-1.7,1.8-3.6,1.6-5.3-0.1c-0.8-0.8-1.3-1.8-1.9-2.8c-2.5-4.2-2.5-4.2-6.3-1.5c-5,3.6-10.6,5.6-16.6,6.4
		c-2.5,0.3-2.8,1.2-2,3.3c0.6,1.5,1.1,3.1,1.2,4.7c0.2,2.5-0.9,4.2-3.5,4.3c-2.6,0.1-3.6-1.7-3.4-4c0.2-2,0.9-3.9,1.5-5.8
		c0.5-1.6,0.3-2.2-1.5-2.4c-7.3-0.9-14-3.5-19.7-8.3c-1.3-1.1-1.9-0.7-2.6,0.5c-0.9,1.6-1.8,3.3-2.8,4.9c-0.9,1.3-2.2,2.1-3.8,1.8
		c-1.4-0.3-2.5-1.1-2.8-2.6c-0.3-1.7,0.3-3,1.7-3.8c1.6-1,3.2-1.9,4.8-2.8c1.4-0.8,1.6-1.5,0.5-2.9c-4.6-5.7-7.5-12.1-8-19.4
		c-0.1-2-1.3-1.8-2.5-1.6c-1.7,0.4-3.3,1-5.1,1.3C2.1,52.1,0,51.2,0,48.3C0,45.7,1.8,44.7,3.3,44.9z M48.3,15.6
		c-18.2,0-32.8,14.7-32.8,32.9c0,18,14.9,32.7,33.2,32.6c17.9-0.1,32.7-15,32.6-32.8C81.2,30.1,66.5,15.6,48.3,15.6z"/>
	<path d="M55.1,23c9.3,2.4,15.2,7.7,18.2,17.3c1.7,5.6,1.9,9.9,0,15.4c-3.1,9-8.2,14.3-17.3,17.3c-5.6,1.9-9.9,1.7-15.5-0.1
		c-8.7-2.9-14-7.8-17-16.7c-2-6-1.8-10.6,0.1-16.5c2.9-9,8.3-14.1,17.1-16.5C45.3,21.7,52.8,22.4,55.1,23z M48.5,35.6
		c-5.9-0.1-12.7,6.9-12.8,12.7c-0.1,5.5,7,12.3,12.6,12.4c5.8,0.1,12.8-6.9,12.8-12.6C61.2,42.5,54.2,35.7,48.5,35.6z M64.2,30.6
		c-2.6-2.2-5.3-4.1-7.7-5.1c-1.2-0.5-2.5,0.1-3.7-0.4c-0.8-0.3-2.5-0.6-2.6,1.1c-0.2,2.5-0.3,5,0.1,7.4c0.2,0.9,1.8,1.3,3.4,1.9
		c1.8,0.7,2.5,2,4.4,0.9C61.3,34.5,62,32.5,64.2,30.6z M46.8,71.4c0.7-8.9,0.5-9.4-5.7-11.4c-4.2-1.4-7.2,6.2-8.2,5.9
		c1.9,1.9,3.7,3.5,5.8,4.4C41.1,71.3,44.9,71.7,46.8,71.4z M33.2,30.3c1,1.1,1.6,1.7,2.1,2.4c3.1,3.7,5.7,4.4,9.6,2.1
		c0.9-0.5,1.9-0.6,1.7-2c0.2-2.3,0.5-5-0.4-7.3c-0.2-0.5-1.2-0.5-2-0.5c-1.4,0-3.4,0.4-4.9,1C37.3,26.9,35.6,28.5,33.2,30.3z
		 M63.6,66c-2.2-2-6.3-6.1-7.3-6c-2.6,0.3-4.6,0.6-5.6,2.5c-0.6,1-0.8,3.1-0.8,4.5c0,0.7-0.1,5.6,1.7,4.8c1.6-0.7,4.2-0.8,5.9-1.5
		C59.6,69.5,62,67.3,63.6,66z M71.8,46.6c-0.2-2.4-0.2-5.6-1.1-7.8c-0.9-2.1-2.2-4-4.5-5.9c-3,3.1-7.5,6.9-4,12.3
		C64,48.1,68.6,46.6,71.8,46.6z M25.1,50.1c0.7,2.5,0.7,5.6,1.7,8c0.9,2.1,3,3.4,4,5.8c-1.9,0.2,6.1-4,5.5-8.5
		C34.7,49.6,34.3,48.7,25.1,50.1z M30.9,33c-2.5,1.4-3.6,4-4.4,6.1c-0.9,2.1-0.8,4.9-1.3,7.2c6.9,1.7,9,0.8,11.2-5.3
		C38,36.6,31.9,34.5,30.9,33z M71.6,50.1c-9.4-0.5-10.1,0.6-11.8,6.5c-0.7,2.6,5.6,5.7,6.5,7.3c0.1,0.1,0.2,0.1,0.3,0
		c1.8-2.1,3.1-4.2,4.1-6.5C71.5,55.4,72.2,52.4,71.6,50.1z"/>
	<path d="M48.4,41.1c3.8-0.1,6.9,2.9,7,6.7c0.1,3.9-3,7.2-6.9,7.2c-3.6,0-6.8-3.2-6.8-7C41.7,44.3,44.7,41.2,48.4,41.1z M52.1,47.7
		c-0.6-1.6-1.4-3.1-3.6-3c-2.1,0.1-3.3,1.4-3.3,3.3c0,2.1,1.4,3.5,3.6,3.4C50.9,51.3,51.8,49.8,52.1,47.7z"/>
	<circle class="st0" cx="48.3" cy="48.4" r="35.5"/>
	<circle class="st0" cx="48.3" cy="48.4" r="33.5"/>
	<circle class="st1" cx="48.4" cy="48.4" r="25.9"/>
	<circle class="st2" cx="48.5" cy="48.1" r="6.3"/>
	<circle class="st0" cx="48.6" cy="48.1" r="11.9"/>
	<circle class="st1" cx="48.6" cy="48.1" r="3.4"/>
	<circle class="st0" cx="48.6" cy="48.1" r="14.1"/>
	<circle class="st0" cx="48.6" cy="48.1" r="23.9"/>
</g>
</svg>
