<?xml version="1.0" encoding="iso-8859-1"?>
<!-- Generator: Adobe Illustrator 19.0.0, SVG Export Plug-In . SVG Version: 6.00 Build 0)  -->
<svg version="1.1" id="Layer_1" xmlns="http://www.w3.org/2000/svg" xmlns:xlink="http://www.w3.org/1999/xlink" x="0px" y="0px"
	 viewBox="0 0 512 512" style="enable-background:new 0 0 512 512;" xml:space="preserve">
<g>
	<g>
		<path d="M497.001,338.486c-8.284,0-14.999,6.702-14.999,14.986c-0.54,3.5-15.935,15.028-46.002,15.028c-28.797,0-45-11.324-45-15
			c0-5.837-3.341-10.884-8.209-13.363C388.188,325.424,391,309.702,391,293.5c0-74.439-60.561-135-135-135s-135,60.561-135,135
			c0,16.121,2.838,31.857,8.26,46.613c-4.895,2.47-8.26,7.53-8.26,13.387c0,3.319-15.281,15-45,15c-30.067,0-45.462-11.528-46-15
			c0-8.284-6.716-15-15-15s-15,6.716-15,15c0,25.654,32.673,45,76,45c20.202,0,44.132-4.705,60-17.164
			c15.862,12.455,39.786,17.164,60,17.164c20.202,0,44.132-4.705,60-17.164c15.862,12.455,39.786,17.164,60,17.164
			c18.31,0,35.76-3.683,49.135-10.371c4.078-2.039,7.708-4.314,10.865-6.793c15.862,12.455,39.786,17.164,60,17.164
			c43.327,0,76-19.346,76-45C512,345.216,505.285,338.486,497.001,338.486z M330.519,367.471c-4.66,0.673-9.553,1.029-14.519,1.029
			c-28.797,0-45-11.324-45-15c0-8.284-6.716-15-15-15s-15,6.716-15,15c0,3.319-15.281,15-45,15c-5.045,0-10.017-0.365-14.743-1.059
			C179.093,364.546,151,339.04,151,293.5c0-57.897,47.103-105,105-105c57.897,0,105,47.103,105,105
			C361,321.508,350.194,347.676,330.519,367.471z"/>
	</g>
</g>
<g>
	<g>
		<path d="M497.001,413.486c-8.284,0-14.999,6.702-14.999,14.986c-0.54,3.5-15.935,15.028-46.002,15.028c-28.797,0-45-11.324-45-15
			c0-8.284-6.716-15-15-15s-15,6.716-15,15c0,3.319-15.281,15-45,15c-28.797,0-45-11.324-45-15c0-8.284-6.716-15-15-15
			s-15,6.716-15,15c0,3.319-15.281,15-45,15c-28.797,0-45-11.324-45-15c0-8.284-6.716-15-15-15s-15,6.716-15,15
			c0,3.319-15.281,15-45,15c-30.067,0-45.462-11.528-46-15c0-8.284-6.716-15-15-15s-15,6.716-15,15c0,25.654,32.673,45,76,45
			c20.202,0,44.132-4.705,60-17.164c15.862,12.455,39.786,17.164,60,17.164c20.202,0,44.132-4.705,60-17.164
			c15.862,12.455,39.786,17.164,60,17.164c20.202,0,44.132-4.705,60-17.164c15.862,12.455,39.786,17.164,60,17.164
			c43.327,0,76-19.346,76-45C512,420.216,505.285,413.486,497.001,413.486z"/>
	</g>
</g>
<g>
	<g>
		<path d="M256,38.5c-8.284,0-15,6.716-15,15v60c0,8.284,6.716,15,15,15s15-6.716,15-15v-60C271,45.216,264.284,38.5,256,38.5z"/>
	</g>
</g>
<g>
	<g>
		<path d="M139.385,155.672L96.9,113.188c-5.857-5.858-15.355-5.858-21.212,0c-5.858,5.858-5.858,15.355,0,21.213l42.484,42.484
			c5.857,5.858,15.356,5.858,21.213,0C145.243,171.027,145.243,161.53,139.385,155.672z"/>
	</g>
</g>
<g>
	<g>
		<path d="M76,278.5H15c-8.284,0-15,6.716-15,15s6.716,15,15,15h61c8.284,0,15-6.716,15-15S84.284,278.5,76,278.5z"/>
	</g>
</g>
<g>
	<g>
		<path d="M497,278.5h-61c-8.284,0-15,6.716-15,15s6.716,15,15,15h61c8.284,0,15-6.716,15-15S505.284,278.5,497,278.5z"/>
	</g>
</g>
<g>
	<g>
		<path d="M436.313,113.188c-5.857-5.858-15.355-5.858-21.213,0l-42.427,42.426c-5.858,5.857-5.858,15.355,0,21.213
			c5.857,5.858,15.355,5.858,21.213,0l42.427-42.426C442.171,128.544,442.171,119.046,436.313,113.188z"/>
	</g>
</g>
<g>
</g>
<g>
</g>
<g>
</g>
<g>
</g>
<g>
</g>
<g>
</g>
<g>
</g>
<g>
</g>
<g>
</g>
<g>
</g>
<g>
</g>
<g>
</g>
<g>
</g>
<g>
</g>
<g>
</g>
</svg>
