<?xml version="1.0" encoding="iso-8859-1"?>
<!-- Generator: Adobe Illustrator 19.0.0, SVG Export Plug-In . SVG Version: 6.00 Build 0)  -->
<svg version="1.1" id="Capa_1" xmlns="http://www.w3.org/2000/svg" xmlns:xlink="http://www.w3.org/1999/xlink" x="0px" y="0px"
	 viewBox="0 0 512 512" fill="#00a0b7" style="enable-background:new 0 0 512 512;" xml:space="preserve">
<g>
	<g>
		<path d="M452,31h-15c-8.284,0-15,6.716-15,15v45H90V46c0-8.284-6.716-15-15-15H60C26.916,31,0,57.916,0,91v15v300v15
			c0,33.084,26.916,60,60,60h392c33.084,0,60-26.916,60-60V91C512,57.916,485.084,31,452,31z M30,106V91c0-16.542,13.458-30,30-30
			v300c-10.92,0-21.17,2.933-30,8.052V106z M452,451H60c-16.542,0-30-13.458-30-30s13.458-30,30-30h15c8.284,0,15-6.716,15-15V121
			h332v255c0,8.284,6.716,15,15,15h15c16.542,0,30,13.458,30,30S468.542,451,452,451z M482,369.052
			c-8.83-5.119-19.08-8.052-30-8.052V61c16.542,0,30,13.458,30,30V369.052z"/>
	</g>
</g>
<g>
	<g>
		<path d="M255,241c-8.284,0-15,6.716-15,15v30c0,8.284,6.716,15,15,15s15-6.716,15-15v-30C270,247.716,263.284,241,255,241z"/>
	</g>
</g>
<g>
	<g>
		<path d="M347,241c-8.284,0-15,6.716-15,15v30c0,8.284,6.716,15,15,15s15-6.716,15-15v-30C362,247.716,355.284,241,347,241z"/>
	</g>
</g>
<g>
	<g>
		<path d="M165,241c-8.284,0-15,6.716-15,15v30c0,8.284,6.716,15,15,15s15-6.716,15-15v-30C180,247.716,173.284,241,165,241z"/>
	</g>
</g>
<g>
	<g>
		<path d="M387.607,395.393L368.213,376l19.393-19.393c5.858-5.858,5.858-15.355,0-21.213c-5.857-5.858-15.355-5.858-21.213,0
			L347,354.787l-19.394-19.394c-5.857-5.858-15.355-5.858-21.213,0c-5.858,5.858-5.858,15.355,0,21.213L325.787,376l-19.393,19.393
			c-5.858,5.858-5.858,15.355,0,21.213c5.86,5.86,15.358,5.856,21.213,0L347,397.213l19.394,19.393
			c5.857,5.858,15.356,5.858,21.213,0C393.465,410.748,393.465,401.251,387.607,395.393z"/>
	</g>
</g>
<g>
	<g>
		<path d="M317,151h-32c-24.813,0-45,20.186-45,44.997V196c0,8.284,6.716,14.998,15,14.998s15-6.717,15-15.001
			c0-8.269,6.729-14.997,15-14.997h32c8.271,0,15,6.727,15,15c0,8.284,6.716,14.998,15,14.998s15-6.718,15-15.002
			C362,171.185,341.813,151,317,151z"/>
	</g>
</g>
<g>
	<g>
		<path d="M135,151c-8.284,0-15,6.716-15,15s6.716,15,15,15c8.271,0,15,6.729,15,15c0,8.284,6.716,15,15,15s15-6.716,15-15
			C180,171.187,159.813,151,135,151z"/>
	</g>
</g>
<g>
	<g>
		<path d="M255,331c-8.284,0-15,6.716-15,15c0,8.271-6.729,15-15,15h-30c-8.271,0-15-6.729-15-15c0-8.284-6.716-15-15-15
			s-15,6.716-15,15c0,24.813,20.187,45,45,45h30c24.813,0,45-20.187,45-45C270,337.716,263.284,331,255,331z"/>
	</g>
</g>
<g>
</g>
<g>
</g>
<g>
</g>
<g>
</g>
<g>
</g>
<g>
</g>
<g>
</g>
<g>
</g>
<g>
</g>
<g>
</g>
<g>
</g>
<g>
</g>
<g>
</g>
<g>
</g>
<g>
</g>
</svg>
