<?xml version="1.0" encoding="iso-8859-1"?>
<!-- Generator: Adobe Illustrator 19.0.0, SVG Export Plug-In . SVG Version: 6.00 Build 0)  -->
<svg version="1.1" id="Capa_1" xmlns="http://www.w3.org/2000/svg" xmlns:xlink="http://www.w3.org/1999/xlink" x="0px" y="0px"
	 viewBox="0 0 511.998 511.998" style="enable-background:new 0 0 511.998 511.998;" xml:space="preserve">
<g>
	<g>
		<path d="M507.268,148.609l-6.937-6.513c13.645-37.912,4.378-80.913-24.545-109.836C445.284,1.758,399.121-6.899,359.784,10.141
			l-6.475-6.079c-6.072-5.701-15.689-5.376-21.347,0.824l-15.537,17.023c-17.989,18.161-24.772,43.302-20.368,66.735l-84.44,81.318
			c-9.285,8.942-14.236,21.159-13.751,34.148c-11.784,11.784-48.585,48.584-61.507,61.506
			c-13.905,13.905-16.779,34.716-8.644,51.489l-63.628,66.741c-16.673-7.799-37.179-4.828-50.928,8.922
			c-17.546,17.547-17.546,46.096,0,63.642l42.429,42.429c17.545,17.546,46.094,17.547,63.642,0
			c13.906-13.905,16.78-34.717,8.645-51.49l63.628-66.741c16.751,7.837,37.233,4.776,50.927-8.919
			c12.913-12.913,49.731-49.731,61.513-61.513c13.362,0.492,25.44-4.709,34.141-13.745l81.316-84.438
			c24.252,4.558,49.288-2.919,66.993-20.626l21.214-21.214C513.589,164.17,513.443,154.408,507.268,148.609z M98.016,477.626
			c-5.848,5.849-15.365,5.849-21.214,0l-42.429-42.429c-5.848-5.849-5.848-15.366,0-21.214s15.366-5.849,21.215,0l42.428,42.428
			C103.865,462.26,103.865,471.778,98.016,477.626z M108.366,424.335l-21.207-21.208l60.065-63.004l21.208,21.208L108.366,424.335z
			 M221.218,350.474c-5.85,5.847-15.367,5.846-21.215-0.001l-42.428-42.428c-5.849-5.849-5.849-15.366,0-21.214l10.607-10.607
			l63.643,63.643L221.218,350.474z M253.038,318.652l-63.643-63.643l21.225-21.224c0.133,0.136,0.258,0.278,0.393,0.413
			l62.836,62.836c0.135,0.135,0.277,0.26,0.413,0.394L253.038,318.652z M316.474,275.618c-5.949,6.178-15.61,6.003-21.412,0.202
			l-62.836-62.836c-5.941-5.943-5.85-15.584,0.202-21.412l32.217-31.026L347.5,243.4L316.474,275.618z M368.316,221.788
			l-82.056-82.056l22.371-21.543c2.381,3.34,5.053,6.538,8.049,9.534l63.643,63.643c2.996,2.996,6.193,5.668,9.535,8.051
			L368.316,221.788z M465.181,170.153c-17.588,17.587-46.053,17.589-63.643,0l-63.643-63.643c-17.547-17.547-17.547-46.096,0-63.643
			c0.162-0.161,0.319-0.326,0.473-0.495l5.499-6.024l131.581,123.538L465.181,170.153z M475.529,118.81L384.6,33.439
			c24.827-5.729,51.442,1.506,69.972,20.035C471.953,70.855,479.398,95.35,475.529,118.81z"/>
	</g>
</g>
<g>
</g>
<g>
</g>
<g>
</g>
<g>
</g>
<g>
</g>
<g>
</g>
<g>
</g>
<g>
</g>
<g>
</g>
<g>
</g>
<g>
</g>
<g>
</g>
<g>
</g>
<g>
</g>
<g>
</g>
</svg>
