<?xml version="1.0" encoding="utf-8"?>
<!-- Generator: Adobe Illustrator 21.1.0, SVG Export Plug-In . SVG Version: 6.00 Build 0)  -->
<svg version="1.1" id="Слой_1" xmlns="http://www.w3.org/2000/svg" xmlns:xlink="http://www.w3.org/1999/xlink" x="0px" y="0px"
	 viewBox="0 0 93.7 92.6" style="enable-background:new 0 0 93.7 92.6;" xml:space="preserve">
<path d="M80.5,38.9c7.2,0.9,8.9,4,7.2,11.7c-0.5,2.3-0.7,4.6-1,6.8c-0.2,1.8-1.7,3.9-3.2,4.9c-1.9,1.3-1.9,3.4-2.2,5.6
	c-2.6,15.5-12.8,24.3-28.6,24.6c-6.3,0.1-12.8,0.6-19-0.8c-12.6-2.9-20.2-12-21.7-25.8c-0.2-1.6-0.1-2.8-2.1-3.3
	c-1.8-0.5-2.7-2.2-2.8-4.1C6.9,54.8,6,51.2,5.4,47.7c-0.8-4.8,1.6-7.8,6.5-8.6c0.7-0.1,2.1,0.3,1.8-0.6c-1.7-4,2.1-9.8-4.2-12.6
	c-3.6-2.1-5.8-4.7-7.7-8C-1.7,12,0.1,8,6.8,7c9-1.4,20.7-1.8,29.4-4.7c8.8-3,12.5-3,21.4,0.1c8.6,3,20,3.2,29,4.6
	c7.3,1.2,9,5.4,4.9,11.7c-2.5,3.8-6,6.7-9.6,9.3c-2.8,1.9-0.4,7.4-1.7,10.4C80,38.6,80.2,38.9,80.5,38.9z M48.5,35.5
	c3.1,0.2,7.9-0.3,12.6-0.9C65.7,34,71,33.8,75,31.1c2.5-1.7,0.6-3.4,3.1-5.2c1.9-1.4,6.6-4.8,8.2-6.5c1.9-2,4.4-4.1,3.4-7
	c-1-2.7-4.3-2.1-6.6-2.3C71.7,8.8,60.4,7.1,49.4,3.4c-1.9-0.6-3.6-0.5-5.4,0.1c-5.8,1.9-11.7,3.4-17.8,4.3c-6.4,1-12.9,1.7-19.2,2.8
	c-3.6,0.6-4.1,2-2.4,5.2c1.3,2.4,3.1,4.2,5.1,5.9c2.4,2,5.6,3.4,7.2,5.9c0.7,1,0.1,2.4,0.9,3.1c1.9,1.6,5.5,1.9,7.9,2.5
	C32.6,35.1,39.7,35.4,48.5,35.5z M18.6,45.3c0-0.2-0.3-0.3-0.4-0.1c-2.5,7.9-3.6,15.9-2,24.1c2.1,10.2,8.3,16.7,18.4,18.7
	c8.1,1.7,16.4,1.7,24.5,0C70.3,85.7,77,77.7,78,66.3c0.5-5.4-0.6-17.6-2.3-21.7c-0.2-0.4-0.7-0.3-0.7,0.2c0.1,2.3,0,4.2,0.1,6.1
	c0.2,6.5,0.1,13-3.1,19c-2,3.8-4.8,6.4-9.6,5.4c-1-0.2-1.8,0-2.5,0.4c-0.3,0.2-0.9,0.4-1.3,0.6c-9.4,3.2-7.5-3.1-17,0.5
	c-4.3,1.6-7.2-0.7-7.7-1c-0.8-0.5-1.6-0.6-2.5-0.4c-4.7,0.9-7.6-1.7-9.6-5.4c-2.9-5.3-3.3-11.2-3.2-17.1
	C18.6,50.2,18.6,47.8,18.6,45.3z M22.5,47.6c-2.6,11.1,1.5,24.5,7.3,24.6c-0.8-2.8,0.6-3.8,3-4.3c1.2-0.3,2-1.1,2.9-1.9
	c3.3-3,17.2-4.9,23.4,1.1c0.5,0.5,1.5,1,2.1,1c2.6,0.1,3.5,1.5,2.6,4.1c5.8,0.5,9.8-14.2,7.3-24.5c-0.1-0.5-0.7-0.8-1.1-0.6
	c-2.1,0.7-4.1,1.4-6.2,2c-1.4,0.4-2.2,0.7-1.5,2.5c0.5,1.3-0.3,2.5-1.7,2.9c-1.6,0.4-3-0.3-3.1-1.8c-0.1-2.1-1.2-2.1-2.7-1.9
	c-5.2,0.7-10.5,0.6-15.7,0c-1.4-0.2-2.6-0.4-2.7,1.8c-0.1,1.6-1.5,2.3-3.1,2c-1.5-0.3-2.2-1.5-1.8-2.8c0.5-1.8-0.1-2.3-1.7-2.7
	c-2-0.5-3.9-1.2-6-1.9C23.1,46.7,22.6,47.1,22.5,47.6z M17.6,34.3c-0.6-0.2-1.1,0.3-1.1,0.9c0.6,3.9,3.6,6,7,7.7
	c9.8,4.7,20.2,5.3,30.7,4.2c6.4-0.6,12.6-2,18-5.6c2.5-1.6,4.6-3.6,4.8-6.3c0-0.6-0.5-1-1.1-0.8C56.5,40.5,37.2,40.8,17.6,34.3z
	 M34.3,71.8c2.4,3.1,6.7,3,10.1,1c1.9-1.1,3.3-0.7,5.2,0.1c3.5,1.7,7.4,2,9.8-1.3c-3.5-3.6-7.2-5.4-12.2-5.3
	C42,66.4,37.9,67.7,34.3,71.8z M10.7,58.1c0.1,0.4,0.6,0.4,0.7,0c0.6-2.8,1.8-9,2.4-12.3c0.3-1.4,0.9-2.8-1.2-3.2
	C10.4,42.3,9,43.4,9,45.4C8.8,49.6,9.9,54,10.7,58.1z M82.2,57.5c0.1,0.4,0.6,0.4,0.7,0c0.6-3,1.2-6,1.7-9c0.2-1.2,0.3-2.5,0-3.7
	c-0.4-1.6-1.7-2.5-3.4-2.2c-2,0.4-1.6,1.7-1.2,3.2C80.8,49.6,81.4,53.5,82.2,57.5z"/>
<g>
	<path d="M48.2,28.3c-0.6,0.2-0.7,0.3-1.4,0.3c-4,0-8-3.2-8-6.5c0-1,0.2-1.8,1.2-2.1c1.2-0.4,1.9,0.2,2.3,1.3
		c0.4,1.3,0.6,2.8,2.8,2.8c0-2,0.2-6.5-0.1-6.7c-1.3-1-4.6-0.7-3.9-2.4c0.3-0.9,3-1,3.9-1.6c0.5-0.4,0.6-2,0.5-3
		c0-0.2,0.1-0.5,0.3-0.7c0.9-0.7,2.5,0,2.4,0.3c-0.4,1.2-1,3.5,0.1,3.7"/>
	<path d="M45.6,28.3c0.6,0.2,0.7,0.3,1.4,0.3c4,0,8-3.2,8-6.5c0-1-0.2-1.8-1.2-2.1c-1.2-0.4-1.9,0.2-2.3,1.3
		c-0.4,1.3-0.6,2.8-2.8,2.8c0-2-0.2-6.5,0.1-6.7c1.3-1,4.6-0.7,3.9-2.4c-0.3-0.9-3-1-3.9-1.6c-0.5-0.4-0.6-2-0.5-3
		c0-0.2-0.1-0.5-0.3-0.7c-0.9-0.7-2.5,0-2.4,0.3c0.4,1.2,1,3.5-0.1,3.7"/>
</g>
</svg>
