<?xml version="1.0" encoding="iso-8859-1"?>
<!-- Generator: Adobe Illustrator 19.0.0, SVG Export Plug-In . SVG Version: 6.00 Build 0)  -->
<svg version="1.1" id="Capa_1" xmlns="http://www.w3.org/2000/svg" xmlns:xlink="http://www.w3.org/1999/xlink" x="0px" y="0px"
	 viewBox="0 0 511.999 511.999" style="enable-background:new 0 0 511.999 511.999;" xml:space="preserve">
<g>
	<g>
		<path d="M504.331,416.477c-3.976-2.229-7.837-5.042-11.477-8.362c-16.18-14.756-35.409-22.556-55.607-22.556
			c-20.199,0-39.428,7.8-55.607,22.556c-21.522,19.628-48.262,19.628-69.783,0c-32.962-30.062-77.253-30.061-110.215,0
			c-21.522,19.628-48.262,19.628-69.783,0c-16.18-14.756-35.409-22.556-55.607-22.556c-20.199,0-39.427,7.8-55.606,22.555
			c-4.001,3.649-8.259,6.678-12.655,9.003c-7.323,3.873-10.12,12.95-6.246,20.273c3.873,7.323,12.951,10.118,20.272,6.246
			c6.633-3.508,12.973-8.002,18.844-13.356c21.499-19.608,49.283-19.608,70.783,0c32.962,30.061,77.253,30.061,110.215,0
			c21.521-19.628,48.26-19.629,69.783,0c32.961,30.06,77.252,30.062,110.215,0c21.499-19.608,49.282-19.608,70.783,0
			c5.328,4.859,11.056,9.02,17.024,12.365c7.228,4.05,16.368,1.476,20.419-5.75C514.132,429.669,511.558,420.528,504.331,416.477z"
			/>
	</g>
</g>
<g>
	<g>
		<path d="M504.331,356.478c-3.976-2.229-7.837-5.042-11.477-8.362c-16.129-14.71-35.289-22.503-55.417-22.551
			c9.007-22.855,13.561-47.105,13.561-71.394c0-107.558-87.566-194.998-194.998-194.998c-107.813,0-194.998,87.824-194.998,194.998
			c0,24.012,4.474,48.321,13.585,71.43c-19.589,0.417-38.209,8.166-53.942,22.515c-4.001,3.649-8.259,6.678-12.655,9.003
			c-7.323,3.873-10.12,12.95-6.246,20.273c3.873,7.323,12.951,10.118,20.272,6.246c6.633-3.508,12.973-8.002,18.844-13.356
			c21.499-19.608,49.283-19.608,70.783,0c32.962,30.061,77.253,30.061,110.215,0c21.521-19.628,48.26-19.629,69.783,0
			c32.961,30.06,77.252,30.062,110.215,0c21.499-19.608,49.282-19.608,70.783,0c5.328,4.859,11.056,9.02,17.024,12.365
			c7.228,4.05,16.368,1.476,20.419-5.75C514.132,369.67,511.558,360.529,504.331,356.478z M300.999,95.41
			c54.869,15.574,98.187,58.892,113.761,113.762h-63.906c-10.382-21.796-28.059-39.473-49.854-49.854V95.41z M241,89.862
			c4.942-0.448,9.943-0.689,15-0.689s10.058,0.241,15,0.689v60.386c-4.901-0.704-9.907-1.076-15-1.076s-10.099,0.372-15,1.076
			V89.862z M211,95.41v63.906c-21.796,10.382-39.473,28.059-49.854,49.854H97.24C112.813,154.302,156.131,110.984,211,95.41z
			 M91.002,254.171c0-5.057,0.242-10.158,0.689-15.1h60.386c-0.704,4.901-1.076,10.007-1.076,15.1c0,5.043,0.384,10.053,1.102,15
			H91.704C91.25,264.196,91.002,259.192,91.002,254.171z M201.642,348.115c-21.522,19.63-48.261,19.629-69.783,0.001
			c-6.293-5.739-13.051-10.411-20.144-13.996c-6.162-11.08-10.994-22.813-14.437-34.951h63.892
			c3.887,8.182,8.835,15.887,14.776,22.885c8.107,9.548,17.807,17.499,28.549,23.567
			C203.535,346.43,202.582,347.257,201.642,348.115z M272.649,327.303c-10.772-2.336-21.789-2.281-32.549,0.166
			c-34.592-7.46-59.099-37.987-59.099-73.298c0-41.354,33.645-74.999,74.999-74.999s74.999,33.645,74.999,74.999
			C330.999,289.311,306.633,319.596,272.649,327.303z M399.648,335.244c-6.314,3.423-12.351,7.711-18.009,12.871
			c-21.522,19.63-48.261,19.629-69.783,0.001c-1.127-1.028-2.269-2.012-3.421-2.97c18.525-10.685,33.32-26.884,42.433-46.076h63.859
			C411.167,311.618,406.114,323.831,399.648,335.244z M420.295,269.171h-60.383c0.706-4.911,1.087-9.917,1.087-15
			c0-5.093-0.372-10.1-1.076-15h60.386c0.448,4.942,0.689,9.943,0.689,15C420.998,259.194,420.749,264.197,420.295,269.171z"/>
	</g>
</g>
<g>
</g>
<g>
</g>
<g>
</g>
<g>
</g>
<g>
</g>
<g>
</g>
<g>
</g>
<g>
</g>
<g>
</g>
<g>
</g>
<g>
</g>
<g>
</g>
<g>
</g>
<g>
</g>
<g>
</g>
</svg>
