<?xml version="1.0" encoding="utf-8"?>
<!-- Generator: Adobe Illustrator 21.1.0, SVG Export Plug-In . SVG Version: 6.00 Build 0)  -->
<svg version="1.1" id="Layer_1" xmlns="http://www.w3.org/2000/svg" xmlns:xlink="http://www.w3.org/1999/xlink" x="0px" y="0px"
	 viewBox="0 0 792 612" style="enable-background:new 0 0 792 612;" xml:space="preserve">
<style type="text/css">
	.st0{fill:#1C512F;}
	.st1{stroke:#000000;}
	.st2{fill:none;stroke:#000000;}
	.st3{fill:#325B3B;}
	.st4{fill:url(#SVGID_1_);}
	.st5{fill:url(#SVGID_2_);}
	.st6{stroke:#000000;stroke-miterlimit:10;}
</style>
<rect x="101.3" y="366" width="625.2" height="3.6"/>
<g>
	<path class="st0" d="M337.6,414.5v-20.6h3.5V412h12.9v2.4H337.6z"/>
</g>
<g>
	<path class="st1" d="M337.6,414.5v-20.6h3.5V412h12.9v2.4H337.6z"/>
</g>
<g>
	<path class="st0" d="M703.8,414.3v-20.6h18.9v2.4h-15.4v6.3h14.5v2.4h-14.5v7h16v2.4H703.8z"/>
</g>
<g>
	<path class="st1" d="M703.8,414.3v-20.6h18.9v2.4h-15.4v6.3h14.5v2.4h-14.5v7h16v2.4H703.8z"/>
</g>
<g>
	<path class="st0" d="M257.6,414v-20.6h11.6c2.4,0,4.2,0.2,5.4,0.6c1.2,0.4,2.1,1,2.8,1.9c0.7,0.9,1.1,1.9,1.1,3.1
		c0,1.6-0.6,2.8-1.9,3.8c-1.3,1-3.1,1.6-5.5,1.8c1,0.4,1.7,0.8,2.2,1.1c1,0.8,1.9,1.7,2.7,2.6l4.6,5.6h-4.3l-3.5-4.3
		c-1.4-1.7-2.4-2.8-3.1-3.4c-0.7-0.6-1.4-1-2-1.2c-0.6-0.2-1.5-0.3-2.7-0.3h-4v9.1H257.6z M261,402.6h7.4c1.6,0,2.9-0.1,3.7-0.4
		c0.8-0.3,1.5-0.6,2-1.2c0.5-0.5,0.7-1.2,0.7-1.9c0-1-0.5-1.9-1.4-2.4c-0.9-0.6-2.3-0.9-4.2-0.9H261V402.6z"/>
</g>
<g>
	<path class="st1" d="M257.6,414v-20.6h11.6c2.4,0,4.2,0.2,5.4,0.6c1.2,0.4,2.1,1,2.8,1.9c0.7,0.9,1.1,1.9,1.1,3.1
		c0,1.6-0.6,2.8-1.9,3.8c-1.3,1-3.1,1.6-5.5,1.8c1,0.4,1.7,0.8,2.2,1.1c1,0.8,1.9,1.7,2.7,2.6l4.6,5.6h-4.3l-3.5-4.3
		c-1.4-1.7-2.4-2.8-3.1-3.4c-0.7-0.6-1.4-1-2-1.2c-0.6-0.2-1.5-0.3-2.7-0.3h-4v9.1H257.6z M261,402.6h7.4c1.6,0,2.9-0.1,3.7-0.4
		c0.8-0.3,1.5-0.6,2-1.2c0.5-0.5,0.7-1.2,0.7-1.9c0-1-0.5-1.9-1.4-2.4c-0.9-0.6-2.3-0.9-4.2-0.9H261V402.6z"/>
</g>
<g>
	<path d="M408.1,415v-20.6h9c2.2,0,3.9,0.1,5.1,0.4c1.5,0.3,2.8,0.9,4,1.8c1.1,0.9,2,2,2.6,3.3c0.6,1.3,0.9,2.9,0.9,4.7
		c0,2.3-0.5,4.3-1.6,5.9c-1.1,1.6-2.4,2.8-4.1,3.5c-1.7,0.7-3.8,1-6.5,1H408.1z M411.5,412.6h5.6c2.2,0,4-0.2,5.1-0.7
		c1.2-0.5,2.1-1.2,2.7-2.3c0.8-1.4,1.2-3.1,1.2-5c0-2.1-0.4-3.7-1.3-4.9s-2-2-3.4-2.4c-0.9-0.3-2.4-0.4-4.4-0.4h-5.5V412.6z"/>
</g>
<g>
	<path class="st2" d="M408.1,415v-20.6h9c2.2,0,3.9,0.1,5.1,0.4c1.5,0.3,2.8,0.9,4,1.8c1.1,0.9,2,2,2.6,3.3c0.6,1.3,0.9,2.9,0.9,4.7
		c0,2.3-0.5,4.3-1.6,5.9c-1.1,1.6-2.4,2.8-4.1,3.5c-1.7,0.7-3.8,1-6.5,1H408.1z M411.5,412.6h5.6c2.2,0,4-0.2,5.1-0.7
		c1.2-0.5,2.1-1.2,2.7-2.3c0.8-1.4,1.2-3.1,1.2-5c0-2.1-0.4-3.7-1.3-4.9s-2-2-3.4-2.4c-0.9-0.3-2.4-0.4-4.4-0.4h-5.5V412.6z"/>
</g>
<g>
	<path class="st0" d="M565.2,414.5v-20.6h3.5v20.6H565.2z"/>
</g>
<g>
	<path class="st1" d="M565.2,414.5v-20.6h3.5v20.6H565.2z"/>
</g>
<g>
	<path class="st0" d="M181.3,403.6c0-3.5,1.2-6.2,3.6-8.1c2.4-1.9,5.4-2.8,8.9-2.8c2.3,0,4.4,0.4,6.3,1.3s3.4,2.1,4.5,3.7
		c1.1,1.6,1.7,3.5,1.7,5.7c0,3-1.1,5.5-3.2,7.4c-2.4,2.1-5.5,3.2-9.3,3.2c-3.9,0-7-1.1-9.3-3.3C182.4,408.8,181.3,406.4,181.3,403.6
		z M184.9,403.6c0,2.5,0.9,4.5,2.6,5.9c1.7,1.4,3.8,2.1,6.3,2.1c2.5,0,4.7-0.7,6.4-2.1c1.7-1.4,2.6-3.5,2.6-6.2
		c0-1.8-0.4-3.4-1.3-4.7c-0.7-1.1-1.7-1.9-3.1-2.6c-1.4-0.6-2.9-1-4.5-1c-2.6,0-4.8,0.7-6.4,2.1
		C185.7,398.5,184.9,400.7,184.9,403.6z"/>
</g>
<g>
	<path class="st1" d="M181.3,403.6c0-3.5,1.2-6.2,3.6-8.1c2.4-1.9,5.4-2.8,8.9-2.8c2.3,0,4.4,0.4,6.3,1.3s3.4,2.1,4.5,3.7
		c1.1,1.6,1.7,3.5,1.7,5.7c0,3-1.1,5.5-3.2,7.4c-2.4,2.1-5.5,3.2-9.3,3.2c-3.9,0-7-1.1-9.3-3.3C182.4,408.8,181.3,406.4,181.3,403.6
		z M184.9,403.6c0,2.5,0.9,4.5,2.6,5.9c1.7,1.4,3.8,2.1,6.3,2.1c2.5,0,4.7-0.7,6.4-2.1c1.7-1.4,2.6-3.5,2.6-6.2
		c0-1.8-0.4-3.4-1.3-4.7c-0.7-1.1-1.7-1.9-3.1-2.6c-1.4-0.6-2.9-1-4.5-1c-2.6,0-4.8,0.7-6.4,2.1
		C185.7,398.5,184.9,400.7,184.9,403.6z"/>
</g>
<polygon class="st3" points="106.1,159.9 106.1,159.9 292.3,159.9 "/>
<g>
	<path d="M319.1,200.1v1.1H298v-1.1h1.3c1.2,0,2.1-0.2,2.8-0.6c0.5-0.3,0.9-0.8,1.2-1.4c0.2-0.5,0.3-1.7,0.3-3.8v-26.6
		c0-2.1-0.1-3.4-0.3-3.9c-0.2-0.5-0.7-1-1.3-1.4c-0.7-0.4-1.6-0.6-2.7-0.6H298v-1.1h21.1v1.1h-1.3c-1.2,0-2.1,0.2-2.8,0.6
		c-0.5,0.3-0.9,0.8-1.2,1.4c-0.2,0.5-0.3,1.7-0.3,3.8v26.6c0,2.1,0.1,3.4,0.3,3.9c0.2,0.5,0.7,1,1.3,1.4c0.7,0.4,1.6,0.6,2.7,0.6
		H319.1z"/>
	<path d="M334,173.4v3.6c1.4-1.5,2.8-2.7,4.1-3.4c1.3-0.7,2.7-1.1,4.2-1.1c1.8,0,3.3,0.5,4.5,1.5c1.2,1,2,2.2,2.4,3.7
		c0.3,1.1,0.5,3.3,0.5,6.5v10.8c0,2.1,0.2,3.5,0.6,4c0.4,0.5,1.2,0.9,2.4,1v1.1h-14.1v-1.1c1.1-0.1,1.8-0.6,2.3-1.3
		c0.3-0.5,0.5-1.7,0.5-3.7v-12.4c0-2.3-0.1-3.7-0.3-4.3s-0.5-1.1-0.9-1.4s-0.9-0.5-1.4-0.5c-1.7,0-3.3,1.2-4.8,3.7v14.9
		c0,2.1,0.2,3.4,0.6,4c0.4,0.6,1.1,0.9,2.2,1v1.1h-14.1v-1.1c1.2-0.1,2-0.5,2.5-1.1c0.3-0.4,0.5-1.7,0.5-3.9v-15.7
		c0-2.1-0.2-3.4-0.6-3.9c-0.4-0.5-1.2-0.9-2.4-1v-1.1H334z"/>
	<path d="M367.6,163.2v10.2h6.6v2.9h-6.6v17.2c0,1.6,0.1,2.6,0.2,3.1c0.1,0.5,0.4,0.8,0.8,1.1c0.4,0.3,0.7,0.4,1,0.4
		c1.3,0,2.5-1,3.7-2.9l0.9,0.7c-1.6,3.8-4.2,5.7-7.8,5.7c-1.8,0-3.3-0.5-4.5-1.5c-1.2-1-2-2.1-2.3-3.3c-0.2-0.7-0.3-2.5-0.3-5.5v-15
		h-3.6v-1c2.5-1.8,4.6-3.6,6.4-5.6c1.8-1.9,3.3-4.1,4.6-6.5H367.6z"/>
	<path d="M400.4,186.3h-15.3c0.2,3.7,1.2,6.6,2.9,8.8c1.4,1.6,3,2.5,4.9,2.5c1.2,0,2.3-0.3,3.2-1c1-0.7,2-1.9,3.1-3.6l1,0.7
		c-1.5,3.1-3.2,5.3-5,6.5c-1.8,1.3-3.9,1.9-6.3,1.9c-4.1,0-7.3-1.6-9.4-4.8c-1.7-2.6-2.6-5.7-2.6-9.5c0-4.6,1.3-8.3,3.8-11.1
		c2.5-2.8,5.5-4.1,8.8-4.1c2.8,0,5.3,1.2,7.3,3.5C399.2,178.3,400.3,181.8,400.4,186.3z M393.1,184.3c0-3.2-0.2-5.4-0.5-6.6
		s-0.9-2.1-1.6-2.7c-0.4-0.4-1-0.5-1.7-0.5c-1,0-1.9,0.5-2.5,1.5c-1.2,1.8-1.8,4.2-1.8,7.3v1H393.1z"/>
	<path d="M415.5,173.4v6.3c1.8-2.9,3.5-4.8,4.9-5.7c1.4-0.9,2.7-1.4,4-1.4c1.1,0,2,0.3,2.7,1c0.7,0.7,1,1.7,1,2.9
		c0,1.3-0.3,2.4-1,3.1c-0.6,0.7-1.4,1.1-2.3,1.1c-1.1,0-2-0.3-2.7-1c-0.8-0.7-1.2-1.1-1.4-1.1c-0.2-0.1-0.4-0.2-0.7-0.2
		c-0.6,0-1.1,0.2-1.6,0.7c-0.8,0.7-1.4,1.6-1.8,2.9c-0.6,1.9-1,4.1-1,6.4v6.4l0,1.7c0,1.1,0.1,1.9,0.2,2.2c0.2,0.5,0.6,0.9,1.1,1.2
		c0.5,0.2,1.3,0.4,2.4,0.5v1.1h-15v-1.1c1.2-0.1,2-0.4,2.5-1c0.4-0.6,0.6-2.1,0.6-4.5v-15.4c0-1.6-0.1-2.6-0.2-3
		c-0.2-0.6-0.5-1-0.9-1.2c-0.4-0.3-1-0.4-2-0.5v-1.1H415.5z"/>
	<path d="M442.4,173.4v3.6c1.4-1.5,2.8-2.7,4.1-3.4c1.3-0.7,2.7-1.1,4.2-1.1c1.8,0,3.3,0.5,4.5,1.5c1.2,1,2,2.2,2.4,3.7
		c0.3,1.1,0.5,3.3,0.5,6.5v10.8c0,2.1,0.2,3.5,0.6,4c0.4,0.5,1.2,0.9,2.4,1v1.1H447v-1.1c1.1-0.1,1.8-0.6,2.3-1.3
		c0.3-0.5,0.5-1.7,0.5-3.7v-12.4c0-2.3-0.1-3.7-0.3-4.3s-0.5-1.1-0.9-1.4s-0.9-0.5-1.4-0.5c-1.7,0-3.3,1.2-4.8,3.7v14.9
		c0,2.1,0.2,3.4,0.6,4c0.4,0.6,1.1,0.9,2.2,1v1.1H431v-1.1c1.2-0.1,2-0.5,2.5-1.1c0.3-0.4,0.5-1.7,0.5-3.9v-15.7
		c0-2.1-0.2-3.4-0.6-3.9c-0.4-0.5-1.2-0.9-2.4-1v-1.1H442.4z"/>
	<path d="M480.3,197.1c-3.4,3-6.4,4.5-9.1,4.5c-1.6,0-2.9-0.5-4-1.6s-1.6-2.3-1.6-3.9c0-2.1,0.9-4,2.7-5.7c1.8-1.7,5.8-4,11.9-6.8
		v-2.8c0-2.1-0.1-3.4-0.3-4c-0.2-0.5-0.7-1-1.3-1.4c-0.6-0.4-1.4-0.6-2.1-0.6c-1.3,0-2.4,0.3-3.2,0.9c-0.5,0.4-0.8,0.8-0.8,1.3
		c0,0.4,0.3,0.9,0.8,1.5c0.8,0.9,1.1,1.7,1.1,2.5c0,1-0.4,1.8-1.1,2.5c-0.7,0.7-1.7,1-2.8,1c-1.3,0-2.3-0.4-3.1-1.1
		c-0.8-0.8-1.3-1.6-1.3-2.7c0-1.4,0.6-2.8,1.7-4.1c1.1-1.3,2.7-2.3,4.7-3s4.1-1,6.3-1c2.6,0,4.7,0.6,6.3,1.7c1.5,1.1,2.5,2.3,3,3.6
		c0.3,0.8,0.4,2.8,0.4,5.7v10.8c0,1.3,0,2.1,0.1,2.4s0.2,0.6,0.4,0.7c0.2,0.2,0.4,0.2,0.7,0.2c0.5,0,1-0.4,1.6-1.1l0.9,0.7
		c-1,1.5-2,2.5-3.1,3.2c-1.1,0.7-2.3,1-3.6,1c-1.6,0-2.8-0.4-3.7-1.1C481,199.7,480.5,198.6,480.3,197.1z M480.3,194.9v-9.3
		c-2.4,1.4-4.2,2.9-5.4,4.5c-0.8,1.1-1.2,2.2-1.2,3.2c0,0.9,0.3,1.7,1,2.4c0.5,0.5,1.2,0.8,2.1,0.8C477.8,196.6,479,196,480.3,194.9
		z"/>
	<path d="M506.5,163.2v10.2h6.6v2.9h-6.6v17.2c0,1.6,0.1,2.6,0.2,3.1c0.1,0.5,0.4,0.8,0.8,1.1c0.4,0.3,0.7,0.4,1,0.4
		c1.3,0,2.5-1,3.7-2.9l0.9,0.7c-1.6,3.8-4.2,5.7-7.8,5.7c-1.8,0-3.3-0.5-4.5-1.5c-1.2-1-2-2.1-2.3-3.3c-0.2-0.7-0.3-2.5-0.3-5.5v-15
		h-3.6v-1c2.5-1.8,4.6-3.6,6.4-5.6c1.8-1.9,3.3-4.1,4.6-6.5H506.5z"/>
	<path d="M526.6,173.4v22.1c0,2,0.2,3.2,0.7,3.8c0.5,0.5,1.3,0.9,2.7,0.9v1.1h-15v-1.1c1.2,0,2.1-0.4,2.7-1.1
		c0.4-0.5,0.6-1.7,0.6-3.6v-16.3c0-2-0.2-3.2-0.7-3.8s-1.3-0.9-2.7-0.9v-1.1H526.6z M522.5,159.9c1.3,0,2.4,0.5,3.3,1.4
		c0.9,0.9,1.3,2,1.3,3.3s-0.5,2.4-1.4,3.2c-0.9,0.9-2,1.3-3.3,1.3c-1.3,0-2.4-0.4-3.2-1.3s-1.3-2-1.3-3.2s0.4-2.4,1.3-3.3
		C520.1,160.3,521.2,159.9,522.5,159.9z"/>
	<path d="M545.8,172.5c2.4,0,4.7,0.6,6.8,1.9c2.1,1.3,3.7,3,4.8,5.3s1.6,4.8,1.6,7.6c0,4-1,7.3-3,9.9c-2.4,3.2-5.8,4.8-10,4.8
		c-4.2,0-7.4-1.5-9.7-4.4c-2.3-2.9-3.4-6.3-3.4-10.2c0-4,1.2-7.5,3.5-10.4C538.6,174,541.8,172.5,545.8,172.5z M546,174.6
		c-1,0-1.9,0.4-2.6,1.1c-0.7,0.8-1.2,2.3-1.4,4.5c-0.2,2.3-0.3,5.4-0.3,9.4c0,2.1,0.1,4.1,0.4,6c0.2,1.4,0.7,2.5,1.4,3.2
		c0.7,0.7,1.5,1.1,2.4,1.1c0.9,0,1.6-0.2,2.2-0.7c0.8-0.7,1.3-1.6,1.5-2.8c0.4-1.9,0.6-5.7,0.6-11.4c0-3.4-0.2-5.7-0.6-7
		c-0.4-1.3-0.9-2.2-1.7-2.8C547.5,174.9,546.8,174.6,546,174.6z"/>
	<path d="M574.6,173.4v3.6c1.4-1.5,2.8-2.7,4.1-3.4c1.3-0.7,2.7-1.1,4.2-1.1c1.8,0,3.3,0.5,4.5,1.5c1.2,1,2,2.2,2.4,3.7
		c0.3,1.1,0.5,3.3,0.5,6.5v10.8c0,2.1,0.2,3.5,0.6,4c0.4,0.5,1.2,0.9,2.4,1v1.1h-14.1v-1.1c1.1-0.1,1.8-0.6,2.3-1.3
		c0.3-0.5,0.5-1.7,0.5-3.7v-12.4c0-2.3-0.1-3.7-0.3-4.3s-0.5-1.1-0.9-1.4s-0.9-0.5-1.4-0.5c-1.7,0-3.3,1.2-4.8,3.7v14.9
		c0,2.1,0.2,3.4,0.6,4c0.4,0.6,1.1,0.9,2.2,1v1.1h-14.1v-1.1c1.2-0.1,2-0.5,2.5-1.1c0.3-0.4,0.5-1.7,0.5-3.9v-15.7
		c0-2.1-0.2-3.4-0.6-3.9c-0.4-0.5-1.2-0.9-2.4-1v-1.1H574.6z"/>
	<path d="M612.5,197.1c-3.4,3-6.4,4.5-9.1,4.5c-1.6,0-2.9-0.5-4-1.6s-1.6-2.3-1.6-3.9c0-2.1,0.9-4,2.7-5.7c1.8-1.7,5.8-4,11.9-6.8
		v-2.8c0-2.1-0.1-3.4-0.3-4c-0.2-0.5-0.7-1-1.3-1.4c-0.6-0.4-1.4-0.6-2.1-0.6c-1.3,0-2.4,0.3-3.2,0.9c-0.5,0.4-0.8,0.8-0.8,1.3
		c0,0.4,0.3,0.9,0.8,1.5c0.8,0.9,1.1,1.7,1.1,2.5c0,1-0.4,1.8-1.1,2.5c-0.7,0.7-1.7,1-2.8,1c-1.3,0-2.3-0.4-3.1-1.1
		c-0.8-0.8-1.3-1.6-1.3-2.7c0-1.4,0.6-2.8,1.7-4.1c1.1-1.3,2.7-2.3,4.7-3s4.1-1,6.3-1c2.6,0,4.7,0.6,6.3,1.7c1.5,1.1,2.5,2.3,3,3.6
		c0.3,0.8,0.4,2.8,0.4,5.7v10.8c0,1.3,0,2.1,0.1,2.4s0.2,0.6,0.4,0.7c0.2,0.2,0.4,0.2,0.7,0.2c0.5,0,1-0.4,1.6-1.1l0.9,0.7
		c-1,1.5-2,2.5-3.1,3.2c-1.1,0.7-2.3,1-3.6,1c-1.6,0-2.8-0.4-3.7-1.1C613.3,199.7,612.7,198.6,612.5,197.1z M612.5,194.9v-9.3
		c-2.4,1.4-4.2,2.9-5.4,4.5c-0.8,1.1-1.2,2.2-1.2,3.2c0,0.9,0.3,1.7,1,2.4c0.5,0.5,1.2,0.8,2.1,0.8C610,196.6,611.2,196,612.5,194.9
		z"/>
	<path d="M638.5,160.8v34.6c0,2,0.2,3.2,0.7,3.8c0.5,0.5,1.4,0.9,2.7,0.9v1.1h-15v-1.1c1.2,0,2.1-0.4,2.7-1.1
		c0.4-0.5,0.6-1.7,0.6-3.6v-28.8c0-1.9-0.2-3.2-0.7-3.7c-0.5-0.5-1.3-0.9-2.7-0.9v-1.1H638.5z"/>
</g>
<g>
	<path d="M340.2,231.5v1.1c-1.3,0.2-2.4,0.6-3.1,1.2c-1,0.8-2.6,3.1-4.7,6.8l-8.8,14.6v9.8c0,2.1,0.1,3.4,0.3,3.9
		c0.2,0.5,0.7,1,1.3,1.3s1.5,0.6,2.6,0.6h2.3v1.1h-22.7v-1.1h2.1c1.2,0,2.1-0.2,2.8-0.6c0.5-0.3,0.9-0.8,1.2-1.4
		c0.2-0.5,0.3-1.7,0.3-3.8v-8.1l-9.5-17.3c-1.9-3.4-3.2-5.4-4-6c-0.8-0.6-1.8-0.9-3.1-0.9v-1.1h19.4v1.1h-0.9c-1.2,0-2,0.2-2.5,0.5
		c-0.5,0.3-0.7,0.7-0.7,1.1c0,0.7,0.8,2.5,2.4,5.4l7.3,13.4l7.3-12.2c1.8-3,2.7-5,2.7-5.9c0-0.5-0.3-1-0.8-1.3
		c-0.7-0.5-1.9-0.8-3.7-0.9v-1.1H340.2z"/>
	<path d="M351.6,267.8c-3.4,3-6.4,4.5-9.1,4.5c-1.6,0-2.9-0.5-4-1.6s-1.6-2.3-1.6-3.9c0-2.1,0.9-4,2.7-5.7c1.8-1.7,5.8-4,11.9-6.8
		v-2.8c0-2.1-0.1-3.4-0.3-4c-0.2-0.5-0.7-1-1.3-1.4c-0.6-0.4-1.4-0.6-2.1-0.6c-1.3,0-2.4,0.3-3.2,0.9c-0.5,0.4-0.8,0.8-0.8,1.3
		c0,0.4,0.3,0.9,0.8,1.5c0.8,0.9,1.1,1.7,1.1,2.5c0,1-0.4,1.8-1.1,2.5c-0.7,0.7-1.7,1-2.8,1c-1.3,0-2.3-0.4-3.1-1.1
		c-0.8-0.8-1.3-1.6-1.3-2.7c0-1.4,0.6-2.8,1.7-4.1c1.1-1.3,2.7-2.3,4.7-3s4.1-1,6.3-1c2.6,0,4.7,0.6,6.3,1.7c1.5,1.1,2.5,2.3,3,3.6
		c0.3,0.8,0.4,2.8,0.4,5.7v10.8c0,1.3,0,2.1,0.1,2.4s0.2,0.6,0.4,0.7c0.2,0.2,0.4,0.2,0.7,0.2c0.5,0,1-0.4,1.6-1.1l0.9,0.7
		c-1,1.5-2,2.5-3.1,3.2c-1.1,0.7-2.3,1-3.6,1c-1.6,0-2.8-0.4-3.7-1.1S351.8,269.3,351.6,267.8z M351.6,265.6v-9.3
		c-2.4,1.4-4.2,2.9-5.4,4.5c-0.8,1.1-1.2,2.2-1.2,3.2c0,0.9,0.3,1.7,1,2.4c0.5,0.5,1.2,0.8,2.1,0.8
		C349.1,267.3,350.3,266.8,351.6,265.6z"/>
	<path d="M389.4,264.8l0.9,0.7c-1.3,2.5-2.9,4.3-4.9,5.5c-2,1.2-4,1.8-6.2,1.8c-3.7,0-6.7-1.4-8.9-4.2c-2.2-2.8-3.3-6.2-3.3-10.1
		c0-3.8,1-7.1,3-10c2.4-3.5,5.8-5.2,10.1-5.2c2.9,0,5.2,0.7,6.9,2.2c1.7,1.4,2.5,3.1,2.5,4.9c0,1.1-0.3,2-1,2.7
		c-0.7,0.7-1.6,1-2.7,1c-1.2,0-2.1-0.4-2.9-1.2c-0.8-0.8-1.2-2.2-1.4-4.1c-0.1-1.3-0.4-2.1-0.9-2.6c-0.5-0.5-1-0.7-1.6-0.7
		c-1,0-1.8,0.5-2.4,1.5c-1,1.5-1.5,3.9-1.5,7c0,2.6,0.4,5.1,1.3,7.5c0.8,2.4,2,4.2,3.4,5.3c1.1,0.9,2.4,1.3,3.9,1.3
		c1,0,1.9-0.2,2.8-0.7S388.2,266,389.4,264.8z"/>
	<path d="M405.2,231.5v16.1c1.5-1.6,2.9-2.7,4.2-3.4c1.3-0.7,2.6-1,4-1c1.7,0,3.2,0.5,4.5,1.5c1.2,1,2.1,2.2,2.5,3.5
		c0.4,1.3,0.6,3.6,0.6,6.8v10.9c0,2.1,0.2,3.5,0.6,4c0.4,0.5,1.2,0.9,2.4,1v1.1h-14.1v-1.1c1-0.1,1.7-0.5,2.2-1.2
		c0.4-0.5,0.5-1.8,0.5-3.8v-12.4c0-2.3-0.1-3.7-0.3-4.3s-0.5-1-0.9-1.4c-0.4-0.3-0.9-0.5-1.4-0.5c-0.8,0-1.6,0.3-2.3,0.8
		c-0.8,0.5-1.6,1.5-2.4,2.9v14.9c0,2,0.1,3.2,0.4,3.7c0.4,0.7,1.2,1.1,2.3,1.3v1.1h-14.1v-1.1c1.2-0.1,2-0.5,2.5-1.1
		c0.3-0.4,0.5-1.7,0.5-3.8v-28.3c0-2.1-0.2-3.4-0.6-3.9c-0.4-0.5-1.2-0.9-2.4-1v-1.1H405.2z"/>
	<path d="M438.8,233.9v10.2h6.6v2.9h-6.6v17.2c0,1.6,0.1,2.6,0.2,3.1c0.1,0.5,0.4,0.8,0.8,1.1c0.4,0.3,0.7,0.4,1,0.4
		c1.3,0,2.5-1,3.7-2.9l0.9,0.7c-1.6,3.8-4.2,5.7-7.8,5.7c-1.8,0-3.3-0.5-4.5-1.5c-1.2-1-2-2.1-2.3-3.3c-0.2-0.7-0.3-2.5-0.3-5.5v-15
		h-3.6v-1c2.5-1.8,4.6-3.6,6.4-5.6c1.8-1.9,3.3-4.1,4.6-6.5H438.8z"/>
</g>
<g>
	<path d="M334.2,300.4v10.9h-1.1c-0.6-2.5-1.3-4.3-2.1-5.4s-1.8-2-3.2-2.6c-0.8-0.4-2.1-0.5-4-0.5h-3v31.2c0,2.1,0.1,3.4,0.3,3.9
		c0.2,0.5,0.7,1,1.3,1.4c0.7,0.4,1.6,0.6,2.7,0.6h1.3v1.1h-21.2v-1.1h1.3c1.2,0,2.1-0.2,2.8-0.6c0.5-0.3,0.9-0.8,1.2-1.4
		c0.2-0.5,0.3-1.7,0.3-3.8v-31.2h-2.9c-2.7,0-4.7,0.6-5.9,1.7c-1.7,1.6-2.8,3.9-3.3,6.9h-1.1v-10.9H334.2z"/>
	<path d="M345.5,312.9v6.3c1.8-2.9,3.5-4.8,4.9-5.7c1.4-0.9,2.7-1.4,4-1.4c1.1,0,2,0.3,2.7,1c0.7,0.7,1,1.7,1,2.9
		c0,1.3-0.3,2.4-1,3.1c-0.6,0.7-1.4,1.1-2.3,1.1c-1.1,0-2-0.3-2.7-1c-0.8-0.7-1.2-1.1-1.4-1.1c-0.2-0.1-0.4-0.2-0.7-0.2
		c-0.6,0-1.1,0.2-1.6,0.7c-0.8,0.7-1.4,1.6-1.8,2.9c-0.6,1.9-1,4.1-1,6.4v6.4l0,1.7c0,1.1,0.1,1.9,0.2,2.2c0.2,0.5,0.6,0.9,1.1,1.2
		c0.5,0.2,1.3,0.4,2.4,0.5v1.1h-15v-1.1c1.2-0.1,2-0.4,2.5-1c0.4-0.6,0.6-2.1,0.6-4.5v-15.4c0-1.6-0.1-2.6-0.2-3
		c-0.2-0.6-0.5-1-0.9-1.2c-0.4-0.3-1-0.4-2-0.5v-1.1H345.5z"/>
	<path d="M376.4,336.7c-3.4,3-6.4,4.5-9.1,4.5c-1.6,0-2.9-0.5-4-1.6s-1.6-2.3-1.6-3.9c0-2.1,0.9-4,2.7-5.7c1.8-1.7,5.8-4,11.9-6.8
		v-2.8c0-2.1-0.1-3.4-0.3-4c-0.2-0.5-0.7-1-1.3-1.4s-1.4-0.6-2.1-0.6c-1.3,0-2.4,0.3-3.2,0.9c-0.5,0.4-0.8,0.8-0.8,1.3
		c0,0.4,0.3,0.9,0.8,1.5c0.8,0.9,1.1,1.7,1.1,2.5c0,1-0.4,1.8-1.1,2.5c-0.7,0.7-1.7,1-2.8,1c-1.3,0-2.3-0.4-3.1-1.1
		c-0.8-0.8-1.3-1.6-1.3-2.7c0-1.4,0.6-2.8,1.7-4.1s2.7-2.3,4.7-3s4.1-1,6.3-1c2.6,0,4.7,0.6,6.3,1.7s2.5,2.3,3,3.6
		c0.3,0.8,0.4,2.8,0.4,5.8V334c0,1.3,0,2.1,0.1,2.4c0.1,0.3,0.2,0.6,0.4,0.7c0.2,0.2,0.4,0.2,0.7,0.2c0.5,0,1-0.4,1.6-1.1l0.9,0.7
		c-1,1.5-2,2.5-3.1,3.2s-2.3,1-3.6,1c-1.6,0-2.8-0.4-3.7-1.1C377.2,339.3,376.6,338.2,376.4,336.7z M376.4,334.5v-9.3
		c-2.4,1.4-4.2,2.9-5.4,4.5c-0.8,1.1-1.2,2.2-1.2,3.2c0,0.9,0.3,1.7,1,2.4c0.5,0.5,1.2,0.8,2.1,0.8
		C374,336.2,375.1,335.6,376.4,334.5z"/>
	<path d="M402.4,312.9V335c0,2,0.2,3.2,0.7,3.8c0.5,0.5,1.3,0.9,2.7,0.9v1.1h-15v-1.1c1.2,0,2.1-0.4,2.7-1.1
		c0.4-0.5,0.6-1.7,0.6-3.6v-16.3c0-2-0.2-3.2-0.7-3.8s-1.3-0.9-2.7-0.9v-1.1H402.4z M398.2,299.4c1.3,0,2.4,0.5,3.3,1.4
		c0.9,0.9,1.3,2,1.3,3.3c0,1.3-0.5,2.4-1.4,3.2c-0.9,0.9-2,1.3-3.3,1.3c-1.3,0-2.4-0.4-3.2-1.3s-1.3-2-1.3-3.2
		c0-1.3,0.4-2.4,1.3-3.3C395.9,299.9,397,299.4,398.2,299.4z"/>
	<path d="M419.9,312.9v3.6c1.4-1.5,2.8-2.7,4.1-3.4s2.7-1.1,4.2-1.1c1.8,0,3.3,0.5,4.5,1.5s2,2.2,2.4,3.7c0.3,1.1,0.5,3.3,0.5,6.5
		v10.8c0,2.1,0.2,3.5,0.6,4c0.4,0.5,1.2,0.9,2.4,1v1.1h-14.1v-1.1c1.1-0.1,1.8-0.6,2.3-1.3c0.3-0.5,0.5-1.7,0.5-3.7v-12.4
		c0-2.3-0.1-3.7-0.3-4.3s-0.5-1.1-0.9-1.4c-0.4-0.3-0.9-0.5-1.4-0.5c-1.7,0-3.3,1.2-4.8,3.7v14.9c0,2.1,0.2,3.4,0.6,4
		c0.4,0.6,1.1,0.9,2.2,1v1.1h-14.1v-1.1c1.2-0.1,2-0.5,2.5-1.1c0.3-0.4,0.5-1.7,0.5-3.9V319c0-2.1-0.2-3.4-0.6-3.9
		c-0.4-0.5-1.2-0.9-2.4-1v-1.1H419.9z"/>
	<path d="M453.3,312.9V335c0,2,0.2,3.2,0.7,3.8c0.5,0.5,1.3,0.9,2.7,0.9v1.1h-15v-1.1c1.2,0,2.1-0.4,2.7-1.1
		c0.4-0.5,0.6-1.7,0.6-3.6v-16.3c0-2-0.2-3.2-0.7-3.8s-1.3-0.9-2.7-0.9v-1.1H453.3z M449.1,299.4c1.3,0,2.4,0.5,3.3,1.4
		c0.9,0.9,1.3,2,1.3,3.3c0,1.3-0.5,2.4-1.4,3.2c-0.9,0.9-2,1.3-3.3,1.3c-1.3,0-2.4-0.4-3.2-1.3s-1.3-2-1.3-3.2
		c0-1.3,0.4-2.4,1.3-3.3C446.8,299.9,447.9,299.4,449.1,299.4z"/>
	<path d="M470.8,312.9v3.6c1.4-1.5,2.8-2.7,4.1-3.4s2.7-1.1,4.2-1.1c1.8,0,3.3,0.5,4.5,1.5s2,2.2,2.4,3.7c0.3,1.1,0.5,3.3,0.5,6.5
		v10.8c0,2.1,0.2,3.5,0.6,4c0.4,0.5,1.2,0.9,2.4,1v1.1h-14.1v-1.1c1.1-0.1,1.8-0.6,2.3-1.3c0.3-0.5,0.5-1.7,0.5-3.7v-12.4
		c0-2.3-0.1-3.7-0.3-4.3s-0.5-1.1-0.9-1.4c-0.4-0.3-0.9-0.5-1.4-0.5c-1.7,0-3.3,1.2-4.8,3.7v14.9c0,2.1,0.2,3.4,0.6,4
		c0.4,0.6,1.1,0.9,2.2,1v1.1h-14.1v-1.1c1.2-0.1,2-0.5,2.5-1.1c0.3-0.4,0.5-1.7,0.5-3.9V319c0-2.1-0.2-3.4-0.6-3.9
		c-0.4-0.5-1.2-0.9-2.4-1v-1.1H470.8z"/>
	<path d="M511.2,313.2h9.4v3.3h-5.3c1,1,1.6,1.9,2,2.7c0.5,1.1,0.7,2.2,0.7,3.4c0,2-0.6,3.7-1.7,5.2c-1.1,1.5-2.6,2.6-4.5,3.4
		s-3.6,1.2-5,1.2c-0.1,0-1.3,0-3.6-0.1c-0.9,0-1.6,0.3-2.2,0.9s-0.9,1.3-0.9,2.1c0,0.7,0.3,1.3,0.8,1.8c0.5,0.5,1.4,0.7,2.7,0.7
		l5.2-0.1c4.2,0,7,0.5,8.6,1.4c2.2,1.3,3.4,3.2,3.4,5.9c0,1.7-0.5,3.2-1.5,4.6c-1,1.4-2.4,2.4-4.1,3.1c-2.6,1-5.5,1.5-8.8,1.5
		c-2.5,0-4.8-0.2-6.9-0.7c-2.1-0.5-3.5-1.2-4.4-2c-0.9-0.9-1.3-1.8-1.3-2.7c0-0.9,0.3-1.7,1-2.5c0.7-0.7,2-1.3,3.8-1.8
		c-2.6-1.3-3.9-3-3.9-5.3c0-1.4,0.5-2.7,1.6-4s2.7-2.4,5-3.4c-2.7-1-4.6-2.3-5.8-3.8s-1.8-3.4-1.8-5.5c0-2.7,1.1-5.1,3.3-7.1
		c2.2-2,5.1-3,8.6-3C507.3,312.1,509.2,312.5,511.2,313.2z M504.3,344.9c-2,0-3.4,0.2-4,0.5c-1.1,0.6-1.7,1.4-1.7,2.5
		c0,1,0.6,1.9,1.8,2.8s3.4,1.2,6.6,1.2c2.8,0,4.9-0.4,6.5-1.1c1.6-0.7,2.4-1.8,2.4-3.1c0-0.5-0.1-0.9-0.4-1.3
		c-0.5-0.6-1.3-1-2.4-1.2C511.8,345,509,344.9,504.3,344.9z M506,313.9c-1.2,0-2.1,0.6-2.9,1.7c-0.8,1.2-1.2,3.6-1.2,7.2
		c0,3,0.4,5,1.2,6.1c0.8,1.1,1.7,1.7,2.8,1.7c1.2,0,2.2-0.5,3-1.6s1.2-3.2,1.2-6.4c0-3.6-0.4-6-1.3-7.3
		C508.1,314.4,507.2,313.9,506,313.9z"/>
</g>
<path d="M746.8,284.2c-19-5.6-128.6-4-148.7-3.2c-47,1.9-92.7,6.6-139.7,7.9c-15,0.4-28.4-3.9-41.5-8.6c-22.5-8-48-3.1-72.2-1.6
	c-18.2,1.2-35.2,4.7-52.8,7.2c0,3,0,6.2,0,9.2c18.6-0.5,36.2-5.8,55.3-7.1c17.4-1.1,34.3-2.4,51.7-1.8c2.4,0,4.6,0.5,7,1
	c8.6,2,15.2,6.1,23.8,8.1c23.4,5.6,47.7,2.7,71.7,1.4c52.2-2.8,191.8-8.1,243.8-6.2c2.6,0.3,5.2-0.9,5.6-2.6
	C751.3,286.2,749.5,284.5,746.8,284.2z"/>
<linearGradient id="SVGID_1_" gradientUnits="userSpaceOnUse" x1="269.6553" y1="285.1837" x2="269.6553" y2="285.1837">
	<stop  offset="0" style="stop-color:#D7B95A"/>
	<stop  offset="5.056180e-02" style="stop-color:#D7B95A"/>
	<stop  offset="5.119805e-02" style="stop-color:#D8BB5D"/>
	<stop  offset="6.176364e-02" style="stop-color:#E3CF90"/>
	<stop  offset="7.128691e-02" style="stop-color:#EDE1BB"/>
	<stop  offset="7.944467e-02" style="stop-color:#F6EFDC"/>
	<stop  offset="8.591317e-02" style="stop-color:#FCF9F3"/>
	<stop  offset="8.988760e-02" style="stop-color:#FFFFFF"/>
	<stop  offset="9.016337e-02" style="stop-color:#FEFCF8"/>
	<stop  offset="9.326009e-02" style="stop-color:#F3EAD2"/>
	<stop  offset="9.663989e-02" style="stop-color:#ECDDB3"/>
	<stop  offset="0.1004" style="stop-color:#E6D39A"/>
	<stop  offset="0.1046" style="stop-color:#E1CA86"/>
	<stop  offset="0.1093" style="stop-color:#DDC476"/>
	<stop  offset="0.1148" style="stop-color:#DBBF6A"/>
	<stop  offset="0.1216" style="stop-color:#D9BC61"/>
	<stop  offset="0.1311" style="stop-color:#D8BA5B"/>
	<stop  offset="0.1573" style="stop-color:#D7B95A"/>
	<stop  offset="0.1629" style="stop-color:#D7B95A"/>
	<stop  offset="0.1854" style="stop-color:#D7B95A"/>
	<stop  offset="0.1946" style="stop-color:#D8BB5E"/>
	<stop  offset="0.2058" style="stop-color:#DBBF69"/>
	<stop  offset="0.218" style="stop-color:#DFC67B"/>
	<stop  offset="0.2309" style="stop-color:#E4D094"/>
	<stop  offset="0.2444" style="stop-color:#ECDFB6"/>
	<stop  offset="0.2581" style="stop-color:#F7F2E3"/>
	<stop  offset="0.264" style="stop-color:#FFFFFF"/>
	<stop  offset="0.2644" style="stop-color:#FEFCF8"/>
	<stop  offset="0.2685" style="stop-color:#F3EAD2"/>
	<stop  offset="0.273" style="stop-color:#ECDDB3"/>
	<stop  offset="0.2781" style="stop-color:#E6D39A"/>
	<stop  offset="0.2836" style="stop-color:#E1CA86"/>
	<stop  offset="0.2899" style="stop-color:#DDC476"/>
	<stop  offset="0.2973" style="stop-color:#DBBF6A"/>
	<stop  offset="0.3063" style="stop-color:#D9BC61"/>
	<stop  offset="0.319" style="stop-color:#D8BA5B"/>
	<stop  offset="0.3539" style="stop-color:#D7B95A"/>
	<stop  offset="0.4157" style="stop-color:#D7B95A"/>
	<stop  offset="0.5056" style="stop-color:#D7B95A"/>
	<stop  offset="0.5562" style="stop-color:#FFFFFF"/>
	<stop  offset="0.5604" style="stop-color:#F9F4E8"/>
	<stop  offset="0.5706" style="stop-color:#EFE4C4"/>
	<stop  offset="0.5816" style="stop-color:#E8D8A5"/>
	<stop  offset="0.5934" style="stop-color:#E3CE8D"/>
	<stop  offset="0.6061" style="stop-color:#DEC67B"/>
	<stop  offset="0.6202" style="stop-color:#DBC06D"/>
	<stop  offset="0.6363" style="stop-color:#D9BC62"/>
	<stop  offset="0.6561" style="stop-color:#D8BA5C"/>
	<stop  offset="0.691" style="stop-color:#D7B95A"/>
	<stop  offset="0.736" style="stop-color:#FFFFFF"/>
	<stop  offset="0.737" style="stop-color:#FEFCF8"/>
	<stop  offset="0.7492" style="stop-color:#F3EAD2"/>
	<stop  offset="0.7624" style="stop-color:#ECDDB3"/>
	<stop  offset="0.7772" style="stop-color:#E6D39A"/>
	<stop  offset="0.7935" style="stop-color:#E1CA86"/>
	<stop  offset="0.812" style="stop-color:#DDC476"/>
	<stop  offset="0.8335" style="stop-color:#DBBF6A"/>
	<stop  offset="0.8601" style="stop-color:#D9BC61"/>
	<stop  offset="0.8973" style="stop-color:#D8BA5B"/>
	<stop  offset="1" style="stop-color:#D7B95A"/>
	<stop  offset="1" style="stop-color:#DBBF6B"/>
	<stop  offset="1" style="stop-color:#E1C984"/>
	<stop  offset="1" style="stop-color:#E7D39C"/>
	<stop  offset="1" style="stop-color:#ECDBB1"/>
	<stop  offset="1" style="stop-color:#F1E3C3"/>
	<stop  offset="1" style="stop-color:#F5E9D1"/>
	<stop  offset="1" style="stop-color:#F8EDDB"/>
	<stop  offset="1" style="stop-color:#FAF0E1"/>
	<stop  offset="1" style="stop-color:#FBF0E3"/>
</linearGradient>
<path class="st4" d="M269.7,285.2"/>
<path d="M658.2,215.4c-19-5.6-40-4-60.1-3.2c-47,1.9-92.7,6.6-139.7,7.9c-15,0.4-28.4-3.9-41.5-8.6c-22.5-8-48-3.1-72.2-1.6
	c-18.2,1.2-35.2,4.7-52.8,7.2c0,3.1,0,6.1,0,9.2c18.6-0.5,36.2-5.8,55.3-7.1c17.4-1.1,34.3-2.4,51.7-1.8c2.4,0,4.6,0.5,7,1
	c8.6,2,15.2,6.1,23.8,8.1c23.4,5.6,47.7,2.7,71.7,1.4c52.2-2.8,103.1-8.1,155.2-6.2c2.6,0.3,5.2-0.9,5.6-2.6
	C662.7,217.4,660.9,215.7,658.2,215.4z"/>
<linearGradient id="SVGID_2_" gradientUnits="userSpaceOnUse" x1="269.6548" y1="216.3885" x2="269.6548" y2="216.3885">
	<stop  offset="0" style="stop-color:#D7B95A"/>
	<stop  offset="5.056180e-02" style="stop-color:#D7B95A"/>
	<stop  offset="5.119805e-02" style="stop-color:#D8BB5D"/>
	<stop  offset="6.176364e-02" style="stop-color:#E3CF90"/>
	<stop  offset="7.128691e-02" style="stop-color:#EDE1BB"/>
	<stop  offset="7.944467e-02" style="stop-color:#F6EFDC"/>
	<stop  offset="8.591317e-02" style="stop-color:#FCF9F3"/>
	<stop  offset="8.988760e-02" style="stop-color:#FFFFFF"/>
	<stop  offset="9.016337e-02" style="stop-color:#FEFCF8"/>
	<stop  offset="9.326009e-02" style="stop-color:#F3EAD2"/>
	<stop  offset="9.663989e-02" style="stop-color:#ECDDB3"/>
	<stop  offset="0.1004" style="stop-color:#E6D39A"/>
	<stop  offset="0.1046" style="stop-color:#E1CA86"/>
	<stop  offset="0.1093" style="stop-color:#DDC476"/>
	<stop  offset="0.1148" style="stop-color:#DBBF6A"/>
	<stop  offset="0.1216" style="stop-color:#D9BC61"/>
	<stop  offset="0.1311" style="stop-color:#D8BA5B"/>
	<stop  offset="0.1573" style="stop-color:#D7B95A"/>
	<stop  offset="0.1629" style="stop-color:#D7B95A"/>
	<stop  offset="0.1854" style="stop-color:#D7B95A"/>
	<stop  offset="0.1946" style="stop-color:#D8BB5E"/>
	<stop  offset="0.2058" style="stop-color:#DBBF69"/>
	<stop  offset="0.218" style="stop-color:#DFC67B"/>
	<stop  offset="0.2309" style="stop-color:#E4D094"/>
	<stop  offset="0.2444" style="stop-color:#ECDFB6"/>
	<stop  offset="0.2581" style="stop-color:#F7F2E3"/>
	<stop  offset="0.264" style="stop-color:#FFFFFF"/>
	<stop  offset="0.2644" style="stop-color:#FEFCF8"/>
	<stop  offset="0.2685" style="stop-color:#F3EAD2"/>
	<stop  offset="0.273" style="stop-color:#ECDDB3"/>
	<stop  offset="0.2781" style="stop-color:#E6D39A"/>
	<stop  offset="0.2836" style="stop-color:#E1CA86"/>
	<stop  offset="0.2899" style="stop-color:#DDC476"/>
	<stop  offset="0.2973" style="stop-color:#DBBF6A"/>
	<stop  offset="0.3063" style="stop-color:#D9BC61"/>
	<stop  offset="0.319" style="stop-color:#D8BA5B"/>
	<stop  offset="0.3539" style="stop-color:#D7B95A"/>
	<stop  offset="0.4157" style="stop-color:#D7B95A"/>
	<stop  offset="0.5056" style="stop-color:#D7B95A"/>
	<stop  offset="0.5562" style="stop-color:#FFFFFF"/>
	<stop  offset="0.5604" style="stop-color:#F9F4E8"/>
	<stop  offset="0.5706" style="stop-color:#EFE4C4"/>
	<stop  offset="0.5816" style="stop-color:#E8D8A5"/>
	<stop  offset="0.5934" style="stop-color:#E3CE8D"/>
	<stop  offset="0.6061" style="stop-color:#DEC67B"/>
	<stop  offset="0.6202" style="stop-color:#DBC06D"/>
	<stop  offset="0.6363" style="stop-color:#D9BC62"/>
	<stop  offset="0.6561" style="stop-color:#D8BA5C"/>
	<stop  offset="0.691" style="stop-color:#D7B95A"/>
	<stop  offset="0.736" style="stop-color:#FFFFFF"/>
	<stop  offset="0.737" style="stop-color:#FEFCF8"/>
	<stop  offset="0.7492" style="stop-color:#F3EAD2"/>
	<stop  offset="0.7624" style="stop-color:#ECDDB3"/>
	<stop  offset="0.7772" style="stop-color:#E6D39A"/>
	<stop  offset="0.7935" style="stop-color:#E1CA86"/>
	<stop  offset="0.812" style="stop-color:#DDC476"/>
	<stop  offset="0.8335" style="stop-color:#DBBF6A"/>
	<stop  offset="0.8601" style="stop-color:#D9BC61"/>
	<stop  offset="0.8973" style="stop-color:#D8BA5B"/>
	<stop  offset="1" style="stop-color:#D7B95A"/>
	<stop  offset="1" style="stop-color:#DBBF6B"/>
	<stop  offset="1" style="stop-color:#E1C984"/>
	<stop  offset="1" style="stop-color:#E7D39C"/>
	<stop  offset="1" style="stop-color:#ECDBB1"/>
	<stop  offset="1" style="stop-color:#F1E3C3"/>
	<stop  offset="1" style="stop-color:#F5E9D1"/>
	<stop  offset="1" style="stop-color:#F8EDDB"/>
	<stop  offset="1" style="stop-color:#FAF0E1"/>
	<stop  offset="1" style="stop-color:#FBF0E3"/>
</linearGradient>
<path class="st5" d="M269.7,216.4"/>
<g>
	<path class="st0" d="M108.7,414l-7-20.6h3.5l4,13.5c0.4,1.4,0.8,2.8,1.1,4.2l1.2-3.8l5-13.9h4.2l3.7,10.4c0.9,2.5,1.6,5,2,7.3
		c0.3-1.3,0.8-2.8,1.3-4.5l4.1-13.2h3.5l-7.2,20.6h-3.3l-5.5-15.7l-0.8-2.4c-0.2,0.9-0.5,1.7-0.8,2.4l-5.5,15.7H108.7z"/>
</g>
<g>
	<path class="st1" d="M108.7,414l-7-20.6h3.5l4,13.5c0.4,1.4,0.8,2.8,1.1,4.2l1.2-3.8l5-13.9h4.2l3.7,10.4c0.9,2.5,1.6,5,2,7.3
		c0.3-1.3,0.8-2.8,1.3-4.5l4.1-13.2h3.5l-7.2,20.6h-3.3l-5.5-15.7l-0.8-2.4c-0.2,0.9-0.5,1.7-0.8,2.4l-5.5,15.7H108.7z"/>
</g>
<g>
	<path class="st6" d="M482.2,413.7l-7-20.6h3.5l4,13.5c0.4,1.4,0.8,2.8,1.1,4.2l1.2-3.8l5-13.9h4.2l3.7,10.4c0.9,2.5,1.6,5,2,7.3
		c0.3-1.3,0.8-2.8,1.3-4.5l4.1-13.2h3.5l-7.2,20.6h-3.3l-5.5-15.7l-0.8-2.4c-0.2,0.9-0.5,1.7-0.8,2.4l-5.5,15.7H482.2z"/>
</g>
<g>
	<path class="st2" d="M482.2,413.7l-7-20.6h3.5l4,13.5c0.4,1.4,0.8,2.8,1.1,4.2l1.2-3.8l5-13.9h4.2l3.7,10.4c0.9,2.5,1.6,5,2,7.3
		c0.3-1.3,0.8-2.8,1.3-4.5l4.1-13.2h3.5l-7.2,20.6h-3.3l-5.5-15.7l-0.8-2.4c-0.2,0.9-0.5,1.7-0.8,2.4l-5.5,15.7H482.2z"/>
</g>
<g>
	<path class="st6" d="M630.2,414.4v-20.6h9c2.2,0,3.9,0.1,5.1,0.4c1.5,0.3,2.8,0.9,4,1.8c1.1,0.9,2,2,2.6,3.3s0.9,2.9,0.9,4.7
		c0,2.3-0.5,4.3-1.6,5.9c-1.1,1.6-2.4,2.8-4.1,3.5c-1.7,0.7-3.8,1-6.5,1H630.2z M633.7,412h5.6c2.2,0,4-0.2,5.1-0.7
		c1.2-0.5,2.1-1.2,2.7-2.3c0.8-1.4,1.2-3.1,1.2-5c0-2.1-0.4-3.7-1.3-4.9s-2-2-3.4-2.4c-0.9-0.3-2.4-0.4-4.4-0.4h-5.5V412z"/>
</g>
<g>
	<path class="st2" d="M630.2,414.4v-20.6h9c2.2,0,3.9,0.1,5.1,0.4c1.5,0.3,2.8,0.9,4,1.8c1.1,0.9,2,2,2.6,3.3s0.9,2.9,0.9,4.7
		c0,2.3-0.5,4.3-1.6,5.9c-1.1,1.6-2.4,2.8-4.1,3.5c-1.7,0.7-3.8,1-6.5,1H630.2z M633.7,412h5.6c2.2,0,4-0.2,5.1-0.7
		c1.2-0.5,2.1-1.2,2.7-2.3c0.8-1.4,1.2-3.1,1.2-5c0-2.1-0.4-3.7-1.3-4.9s-2-2-3.4-2.4c-0.9-0.3-2.4-0.4-4.4-0.4h-5.5V412z"/>
</g>
<g>
	<path d="M80.7,229.5c-0.6,0.1-0.8,0.5-0.6,0.9c0.2,0.4,0.8,0.5,1.4,0.4c8.4-1,16.5-2.9,24.6-4.6v-5.4
		C97.3,223.4,88.9,226.4,80.7,229.5z"/>
	<path d="M143.5,221.8"/>
	<g>
		<path d="M80.7,298.3c-0.6,0.1-0.8,0.5-0.6,0.9c0.2,0.4,0.8,0.5,1.4,0.4c8.4-1,16.5-2.9,24.6-4.6v-5.4
			C97.3,292.1,88.9,295.2,80.7,298.3z"/>
		<path d="M143.5,290.6"/>
		<path d="M269.7,285.2"/>
		<path d="M292.3,159.9H106.1l0,0v60.9c11.3-3.3,23-5.9,35.3-7l4.7-0.1c1.5,0,3,0.3,4.1,1l0.3,0.3c5.5,2.2,4.1,5.8,6.5,8.6
			c0.3,0.4,1.4,0.9,2,0.8c19.4-2.9,35.9-8.1,55.2-10.9c19-2.8,36.9-5.8,56.1-6l2.6,0.1c1.3,0.1,2.6,0.4,3.6,0.8l5.1,3.7
			c2.1,1.8,4,3.8,6.1,5.7c1.4-0.2,2.9-0.4,4.3-0.6c0,3.1,0,6.1,0,9.2c-2.4,0.1-4.7,0.1-7.1-0.1c-7.7-0.4-11.1-5.8-15.2-9.8l-2.4-0.2
			c-26,2.1-51.3,5.6-76.4,11.1c-11.2,2.5-21.8,6.5-34.2,5.4c-7.5-0.7-15.6-5.7-13.3-10.9l-1.4,0c-12.6-0.6-24.3,1.8-36,4.4v63.4
			c11.3-3.3,23-5.9,35.3-7l4.7-0.1c1.5,0,3,0.3,4.1,1l0.3,0.3c5.5,2.2,4.1,5.8,6.5,8.6c0.3,0.4,1.4,0.9,2,0.8
			c19.4-2.9,35.9-8.1,55.2-10.9c19-2.8,36.9-5.8,56.1-6l2.6,0.1c1.3,0.1,2.6,0.4,3.6,0.8l5.1,3.7c2.1,1.8,4,3.8,6.1,5.7
			c1.4-0.2,2.9-0.4,4.3-0.6c0,3,0,6.2,0,9.2c-2.4,0.1-4.7,0.1-7.1-0.1c-7.7-0.4-11.1-5.8-15.2-9.8l-2.4-0.2
			c-26,2.1-51.3,5.6-76.4,11.1c-11.2,2.5-21.8,6.4-34.2,5.4c-7.5-0.7-15.6-5.7-13.3-10.9l-1.4,0c-12.6-0.6-24.3,1.8-36,4.4v45.8l0,0
			h186.2l0,0L292.3,159.9L292.3,159.9z"/>
	</g>
	<path d="M269.7,216.4"/>
</g>
</svg>
