<?xml version="1.0" encoding="iso-8859-1"?>
<!-- Generator: Adobe Illustrator 19.0.0, SVG Export Plug-In . SVG Version: 6.00 Build 0)  -->
<svg version="1.1" id="Capa_1" xmlns="http://www.w3.org/2000/svg" xmlns:xlink="http://www.w3.org/1999/xlink" x="0px" y="0px"
	 viewBox="0 0 512.002 512.002" style="enable-background:new 0 0 512.002 512.002;" xml:space="preserve">
<g>
	<g>
		<path d="M510.524,373.869c-3.581-7.471-12.54-10.625-20.01-7.043c-5.942,2.848-11.659,6.402-16.992,10.562
			c-21.698,16.924-50.852,16.924-72.548,0c-16.031-12.504-34.781-19.114-54.225-19.114c-6.465,0-12.85,0.747-19.088,2.182
			c14.429-17.839,23.986-39.516,27.237-62.275c2.642-18.489,13.5-38.076,30.577-55.153l28.341-28.341
			c16.8,8.003,37.427,5.001,51.208-8.782c13.827-13.828,16.748-34.485,8.781-51.207l33.644-33.645
			c5.858-5.858,5.858-15.355,0-21.213l-63.639-63.639c-5.854-5.854-15.356-5.857-21.213,0l-33.644,33.645
			c-16.723-7.967-37.381-5.045-51.208,8.782c-13.826,13.827-16.748,34.484-8.781,51.207l-28.342,28.341
			c-14.076,14.077-35.815,24.386-58.153,27.577c-27.131,3.875-52.744,16.683-72.124,36.063L24.587,367.575
			c-1.096-0.526-2.222-1.055-3.399-1.587c-7.548-3.415-16.435-0.064-19.85,7.483c-3.415,7.548-0.064,16.435,7.483,19.85
			c6.098,2.759,10.582,5.285,13.707,7.723c23.458,18.298,51.651,23.13,77.311,15.907c0.063-0.018,0.126-0.035,0.189-0.053
			c10.989-3.121,21.45-8.443,30.951-15.854c21.731-16.951,49.815-16.951,71.548,0c32.936,25.691,76.044,25.277,108.45,0
			c21.731-16.951,49.815-16.951,71.548,0c32.733,25.532,76.716,25.532,109.449,0c3.636-2.836,7.508-5.247,11.509-7.165
			C510.952,390.298,514.105,381.339,510.524,373.869z M433.205,68.021l42.425,42.425l-21.213,21.214l-42.426-42.426L433.205,68.021z
			 M358.96,99.841c5.848-5.848,15.365-5.849,21.214,0l63.639,63.639c5.848,5.849,5.848,15.365,0,21.213
			c-5.849,5.849-15.365,5.849-21.214,0l-63.638-63.639C353.112,115.205,353.112,105.689,358.96,99.841z M197.745,364.12
			c-11.69-4.545-24.038-6.5-36.796-5.63l78.34-78.34c5.849-5.847,15.365-5.848,21.213,0c5.874,5.875,5.851,15.361,0,21.213
			c-0.002,0.001-0.003,0.003-0.005,0.005L197.745,364.12z M297.625,349.091l-41.005,41.005c-11.118-0.026-22.228-3.439-32.207-10.22
			l57.301-57.302c17.586-17.586,17.589-46.051,0-63.639c-17.545-17.546-46.094-17.546-63.638,0L88.1,388.914
			c-12.465,2.617-25.423,0.882-37.23-5.196l140.69-140.69c14.82-14.82,34.408-24.614,55.153-27.578
			c28.537-4.077,56.62-17.558,75.124-36.063l26.517-26.517l42.426,42.426l-26.517,26.517c-21.636,21.637-35.508,47.25-39.061,72.124
			C322.238,314.685,312.444,334.272,297.625,349.091z"/>
	</g>
</g>
<g>
	<g>
		<path d="M510.522,433.868c-3.579-7.471-12.538-10.625-20.008-7.043c-5.942,2.848-11.659,6.402-16.992,10.562
			c-21.698,16.924-50.852,16.923-72.548,0c-32.641-25.46-75.704-25.543-108.449,0c-21.732,16.951-49.816,16.951-71.548,0
			c-16.031-12.504-34.782-19.114-54.225-19.114s-38.194,6.609-54.225,19.114c-21.733,16.952-49.816,16.951-71.548,0
			c-5.095-3.974-11.384-7.597-19.792-11.4c-7.548-3.415-16.435-0.064-19.85,7.483c-3.415,7.548-0.064,16.435,7.483,19.85
			c6.098,2.759,10.582,5.285,13.707,7.723c32.64,25.46,75.703,25.542,108.449,0c21.731-16.951,49.815-16.952,71.548,0
			c32.64,25.46,75.703,25.542,108.45,0c21.731-16.951,49.815-16.952,71.548,0c32.733,25.532,76.716,25.532,109.449,0
			c3.636-2.836,7.508-5.247,11.509-7.165C510.95,450.297,514.103,441.338,510.522,433.868z"/>
	</g>
</g>
<g>
</g>
<g>
</g>
<g>
</g>
<g>
</g>
<g>
</g>
<g>
</g>
<g>
</g>
<g>
</g>
<g>
</g>
<g>
</g>
<g>
</g>
<g>
</g>
<g>
</g>
<g>
</g>
<g>
</g>
</svg>
