<?xml version="1.0" encoding="iso-8859-1"?>
<!-- Generator: Adobe Illustrator 19.0.0, SVG Export Plug-In . SVG Version: 6.00 Build 0)  -->
<svg version="1.1" id="Capa_1" xmlns="http://www.w3.org/2000/svg" xmlns:xlink="http://www.w3.org/1999/xlink" x="0px" y="0px"
	 viewBox="0 0 512 512" fill="#7c4f3a" style="enable-background:new 0 0 512 512;" xml:space="preserve">
<g>
	<g>
		<path d="M392.083,180.988c-24.818,0-45.008,20.19-45.008,45.008s20.189,45.008,45.008,45.008c24.818,0,45.008-20.19,45.008-45.008
			S416.901,180.988,392.083,180.988z"/>
	</g>
</g>
<g>
	<g>
		<path d="M471.951,274.633c-5.873-2.071-12.092-3.374-18.643-3.507c-0.527-0.011-1.144-0.011-1.679-0.022
			c-13.711,18.048-35.184,29.904-59.545,29.904c-23.896,0-44.971-11.441-58.717-28.903c-11.774,2.221-24.716,7.882-33.312,16.477
			c0,0-50.663,50.663-78.121,78.121l-50.693-50.693h83.804c8.402,0,15.003-6.602,15.003-15.003V30.961
			c0-8.402-6.6-15.003-15.003-15.003H15.003C6.6,15.958,0,22.558,0,30.961v270.047c0,8.4,6.6,15.003,15.003,15.003h113.809
			l72.717,72.717c-8.125,11.968-8.188,28.027,2.296,38.514c11.721,11.721,30.708,11.721,42.429,0c0,0,59.254-57.254,85.815-83.914
			c-0.002,30.725-0.009,95.442-0.011,137.769c0,8.287,6.717,14.946,15.003,14.946h90.027c8.285,0,14.903-6.717,14.903-15.003
			v-44.964c0.033,16.515,13.523,29.961,30.105,29.961c16.572,0,29.905-13.435,29.905-30.005c0-58.607,0-30.408,0-105.018
			C512,307.144,497.935,283.795,471.951,274.633z M180.031,120.977c0-8.292,6.71-15.003,15.003-15.003
			c8.292,0,15.003,6.71,15.003,15.003v90.016c0,8.292-6.71,15.003-15.003,15.003c-8.292,0-15.003-6.71-15.003-15.003V120.977z
			 M120.021,150.982c0-8.292,6.71-15.003,15.003-15.003c8.292,0,15.003,6.71,15.003,15.003v60.01c0,8.292-6.71,15.003-15.003,15.003
			c-8.292,0-15.003-6.71-15.003-15.003V150.982z M90.016,210.992c0,8.293-6.71,15.003-15.003,15.003
			c-8.292,0-15.003-6.71-15.003-15.003v-30.005c0-8.292,6.71-15.003,15.003-15.003c8.292,0,15.003,6.71,15.003,15.003V210.992z
			 M129.022,316.011l-34.505-34.507c-6.001-5.701-6.001-15.303,0-21.004c5.701-6,15.301-6,21.003,0l55.51,55.511H129.022z"/>
	</g>
</g>
<g>
</g>
<g>
</g>
<g>
</g>
<g>
</g>
<g>
</g>
<g>
</g>
<g>
</g>
<g>
</g>
<g>
</g>
<g>
</g>
<g>
</g>
<g>
</g>
<g>
</g>
<g>
</g>
<g>
</g>
</svg>
