<?xml version="1.0" encoding="iso-8859-1"?>
<!-- Generator: Adobe Illustrator 19.0.0, SVG Export Plug-In . SVG Version: 6.00 Build 0)  -->
<svg version="1.1" id="Capa_1" xmlns="http://www.w3.org/2000/svg" xmlns:xlink="http://www.w3.org/1999/xlink" x="0px" y="0px"
	 viewBox="0 0 512 512" style="enable-background:new 0 0 512 512;" xml:space="preserve">
<g>
	<g>
		<circle cx="77.155" cy="75.158" r="14.982"/>
	</g>
</g>
<g>
	<g>
		<path d="M439.89,119.241l10.601-10.602c8.455-8.454,4.048-22.944-7.656-25.284L336.899,62.168
			c-10.448-2.091-19.727,7.138-17.628,17.628l21.188,105.936c2.345,11.723,16.844,16.096,25.284,7.656l10.185-10.185
			c42.89,50.262,38.372,102.119,23.517,155.119c-83.711-83.709-52.728-52.833-145.353-144.825l10.557-10.557
			c17.523-17.523,17.523-46.037,0-63.562c-17.524-17.523-46.038-17.522-63.562,0l-10.348,10.348l-41.736-43.694
			c3.331-23.149-4.028-46.662-21.162-63.796c-29.206-29.207-76.73-29.207-105.936,0c-29.207,29.206-29.207,76.729,0,105.935
			c16.896,16.896,40.316,24.362,63.3,21.185l41.967,43.936l-10.834,10.834c-17.565,17.565-17.567,45.994,0,63.561
			c17.522,17.523,46.037,17.524,63.561,0l10.63-10.63c92.668,92.036,62.026,61.499,143.859,143.333
			c-57.883,15.478-105.367,14.45-150.99-24.659l10.197-10.197c8.455-8.456,4.048-22.944-7.656-25.284L80.006,319.062
			c-10.476-2.092-19.723,7.159-17.628,17.628l21.186,105.936c2.344,11.724,16.845,16.094,25.284,7.656l10.602-10.602
			c91.11,89.685,170.747,76.26,262.843,60.734c33.689-5.679,58.835-9.814,92.163-12.38c7.368-0.566,13.221-6.42,13.789-13.788
			c2.557-33.236,6.727-58.389,12.403-91.855C516.278,290.241,529.799,210.565,439.89,119.241z M43.092,106.985
			c-17.523-17.523-17.523-46.037,0-63.562c17.526-17.524,46.037-17.524,63.562,0c17.565,17.564,17.567,45.994,0,63.561
			C89.13,124.508,60.616,124.508,43.092,106.985z M115.761,137.967c4.276-2.787,8.331-6.046,12.08-9.795
			c3.478-3.477,6.566-7.239,9.254-11.228l32.452,33.974L148.365,172.1L115.761,137.967z M158.714,246.5
			c-5.842,5.841-15.346,5.842-21.188,0c-5.841-5.842-5.841-15.346,0-21.187l84.749-84.749c5.842-5.842,15.347-5.84,21.188,0
			c5.841,5.842,5.841,15.346,0,21.187C243.451,161.763,158.714,246.5,158.714,246.5z M471.106,377.38
			c-4.402,25.952-8.938,52.694-11.672,81.843c-29.285,2.737-56.103,7.257-82.123,11.644
			c-91.57,15.437-157.727,26.589-238.789-54.472l-8.489-8.489c-5.85-5.851-15.335-5.85-21.187,0l-1.393,1.393l-11.29-56.451
			l56.45,11.29l-1.392,1.392c-5.847,5.848-5.85,15.337,0,21.187c63.503,63.504,131.639,62.258,216.144,35.151
			c10.655-3.418,13.942-16.935,6.018-24.859C272.001,295.627,306.5,330.007,211.716,235.869l21.187-21.187
			c94.831,94.185,60.044,59.518,163.031,162.502c7.91,7.909,21.437,4.653,24.859-6.018c10.02-31.24,20.569-67.761,18.873-105.89
			c-1.928-43.329-19.177-80.705-52.737-114.265c-5.846-5.847-15.338-5.85-21.187,0l-1.393,1.393l-11.291-56.451l56.452,11.29
			l-1.393,1.393c-5.851,5.851-5.851,15.336,0,21.187l8.489,8.489C497.874,219.582,486.646,285.772,471.106,377.38z"/>
	</g>
</g>
<g>
</g>
<g>
</g>
<g>
</g>
<g>
</g>
<g>
</g>
<g>
</g>
<g>
</g>
<g>
</g>
<g>
</g>
<g>
</g>
<g>
</g>
<g>
</g>
<g>
</g>
<g>
</g>
<g>
</g>
</svg>
