<?xml version='1.0' encoding='utf-8'?>
<!DOCTYPE svg PUBLIC '-//W3C//DTD SVG 1.1//EN' 'http://www.w3.org/Graphics/SVG/1.1/DTD/svg11.dtd'>
<svg version="1.1" xmlns="http://www.w3.org/2000/svg" viewBox="0 0 512 512" xmlns:xlink="http://www.w3.org/1999/xlink" enable-background="new 0 0 512 512">
  <g>
    <path d="m482.5,197.2c-2.4-35.4-14.2-62-33.8-78.4v-52c0-30.8-25.1-55.9-55.9-55.9-30.8,0-55.9,25.1-55.9,55.9v52c-19.6,16.3-31.5,43-33.8,78.4l-3.6,52.9h-87l-3.6-52.9c-2.4-35.4-14.2-62-33.8-78.4v-52c0-30.8-25.1-55.9-55.9-55.9-30.8,0-55.9,25.1-55.9,55.9v52c-19.6,16.3-31.5,43-33.8,78.4 0,0-15,223.7-15,224.1 1.7,44.3 47.1,78.6 104.7,78.6 57.6,0 103-34.3 104.7-78.6 0-0.4-3.1-49.3-3.1-49.3h70.5c0,0-3.2,48.4-3.2,48.6 0,0.1 0,0.2 0,0.2 0.7,45.1 46.4,80.2 104.7,80.2 58.3,0 104.1-35.1 104.7-80.2-5.68434e-14-0.1-15-223.6-15-223.6zm-378.9-130.3c-2.84217e-14-8.6 7-15.6 15.6-15.6 8.6,0 15.6,7 15.6,15.6v33.4h-31.3v-33.4zm-33.9,133c4-59.3 37.1-59.3 49.6-59.3 12.5,0 45.5,0 49.6,59.3l10.2,151.7c-16.9-9-37.4-14.1-59.8-14.1-22.4,0-43,5.2-59.8,14.2l10.2-151.8zm49.6,259.7c-34.3,0-63.3-18-64.4-39.7 0,0-1.4-42.6 64.4-42.2 66.8,0.4 64.4,42.2 64.4,42.2-1.1,21.7-30.1,39.7-64.4,39.7zm258-392.7c0-8.6 7-15.6 15.6-15.6 8.6,0 15.6,7 15.6,15.6v33.4h-31.3v-33.4zm-33.9,133c4-59.3 37.1-59.3 49.6-59.3 12.5,0 45.5,0 49.6,59.3l10.3,152.8c-16.9-9-37.5-14.2-59.9-14.2-22.4,0-43,5.2-59.9,14.2l10.3-152.8zm-125.2,131.8l-2.8-41.3h81.5l-2.8,41.3h-75.9zm174.8,129c-34.7,0-64-18.4-64.5-40.4 0,0-2-41.7 64.5-41.5 65.2,0.2 64.5,41.5 64.5,41.5-0.6,22-29.9,40.4-64.5,40.4z"/>
  </g>
</svg>
